**ABCDEFGHIJKLMNOPQRSTUVWXYZabcdefghijklmnopqrstuvwxyz**************************
**PARASOLID !"#$%&'()*+,-./:;<=>?@[\]^_`{|}~0123456789**************************
**PART1;
MC=AMD64;
MC_MODEL=AMD64 Family 25 Model 33 Stepping 0, AuthenticAMD;
MC_ID=unknown;
OS=Windows_NT;
OS_RELEASE=unknown;
FRU=Parasolid Version 34.1, build 247, 10- 7-2022;
APPL=SOLIDWORKS 2023-2023096;
SITE=;
USER=unknown;
FORMAT=text;
GUISE=transmit;
KEY=HorribleStairs;
FILE=HorribleStairs.x_t;
DATE=Fri Sep 22 03:20:09 2023;
**PART2;
SCH=SCH_3401247_34101;
USFLD_SIZE=0;
**PART3;
**END_OF_HEADER*****************************************************************
T51 : TRANSMIT FILE created by modeller version 340124723 SCH_3401247_34101_1300
6231 0 12 36 CCCI7 lattice222 0 CCCI4 mesh1006 0 I8 polyline1008 0 CCCCCCCDI5 ow
ner1040 0 CCCI16 boundary_lattice222 0 CCCI13 boundary_mesh1006 0 I17 boundary_p
olyline1008 0 CCCA16 index_map_offset0 0 1 dA9 index_map82 0 A17 node_id_index_m
ap82 0 A20 schema_embedding_map82 0 A5 child12 0 A14 lowest_node_id0 0 1 dA16 me
sh_offset_data206 0 Z1 5715 2 3 0 0 0 0 0 0 0 1e3 1e-8 0 4 0 1 0 1 1 5 0 6 7 8 0
 0 9 10 11 0 0 0 0 0 0 0 81 255 2 2 5629 12 1 13 0 0 0 0 14 70 11 CI9 list_type0
 0 1 uI10 notransmit0 0 1 lCCCDCCDI12 finger_index0 0 1 dI12 finger_block1012 0
 CZ3 0 4 T1 0 0 11 20 1 15 15 13 255 5 99 0 1 0 16 0 0 17 0 50 255 6 94 0 18 19
 0 0 +.4572 .19685 -.254 0 0 -1 -1 0 0 30 255 7 671 0 10 20 0 0 +0 .59055 -.762
 -1 0 0 29 255 8 663 0 11 21 0 -.4572 .59055 -.762 19 9 CCCCCCI5 frame230 0 CA5
 owner12 0 Z9 33 0 1 17 0 22 0 V0 16 255 10 669 0 ?23 0 24 7 0 0 1 18 255 11 659
 0 25 0 26 8 ?1 17 255 25 0 27 28 29 11 30 31 0 32 +18 26 30 0 33 11 34 35 ?1 17
 33 0 36 37 38 26 39 40 0 41 +18 34 66 0 42 26 43 21 ?1 29 35 32 0 26 44 21 .457
2 .3937 -.254 29 44 486 0 43 45 35 -.4572 -277555756156289e-31 -.3302 29 21 75 0
 34 35 8 -.4572 .3937 -.254 18 43 396 0 46 34 47 44 ?1 29 45 623 0 47 48 44 .457
2 .19685 -.254 18 47 549 0 49 43 50 45 ?1 29 48 625 0 50 51 45 -.4572 .19685 -.2
54 18 50 542 0 52 47 53 48 ?1 29 51 626 0 54 55 48 -.4572 .19685 0 18 54 543 0 5
6 57 58 51 ?1 29 55 627 0 58 59 51 -.4572 0 0 18 58 547 0 60 54 61 55 ?1 29 59 6
28 0 53 62 55 .4572 .19685 0 18 53 544 0 63 50 57 59 ?1 29 62 629 0 57 64 59 .45
72 0 0 18 57 548 0 65 53 54 62 ?1 29 64 630 0 61 66 62 .4572 0 -.3302 18 61 552
 0 67 58 68 64 ?1 29 66 817 0 69 70 64 -.4572 .59055 -.508 18 69 741 0 71 72 73
 66 ?1 29 70 818 0 73 74 66 -.4572 .3937 -.508 18 73 743 0 75 69 76 70 ?1 29 74
 819 0 68 77 70 .4572 .59055 -.508 18 68 742 0 78 61 72 74 ?1 29 77 820 0 72 79
 74 .4572 .3937 -.508 18 72 747 0 38 68 69 77 ?1 29 79 1038 0 76 80 77 -.4572 .7
874 -1.016 18 76 969 0 81 73 82 79 ?1 29 80 1039 0 83 84 79 -.4572 .7874 -.762 1
8 83 964 0 85 86 87 80 ?1 29 84 1041 0 82 88 80 .4572 .7874 -.762 18 82 962 0 89
 76 86 84 ?1 29 88 1042 0 86 90 84 .4572 .59055 -.762 18 86 967 0 91 82 83 88 ?1
 29 90 1268 0 87 92 88 -.4572 .98425 -1.27 18 87 1199 0 93 83 94 90 ?1 29 92 126
9 0 95 96 90 -.4572 .98425 -1.016 18 95 1194 0 97 98 99 92 ?1 29 96 1271 0 94 10
0 92 .4572 .98425 -1.016 18 94 1192 0 101 87 98 96 ?1 29 100 1272 0 98 102 96 .4
572 .7874 -1.016 18 98 1197 0 103 94 95 100 ?1 29 102 1506 0 99 104 100 -.4572 1
.1811 -1.524 18 99 1437 0 105 95 106 102 ?1 29 104 1507 0 107 108 102 -.4572 1.1
811 -1.27 18 107 1432 0 109 110 111 104 ?1 29 108 1509 0 106 112 104 .4572 1.181
1 -1.27 18 106 1430 0 113 99 110 108 ?1 29 112 1510 0 110 114 108 .4572 .98425 -
1.27 18 110 1435 0 115 106 107 112 ?1 29 114 1752 0 111 116 112 -.4572 1.37795 -
1.778 18 111 1683 0 117 107 118 114 ?1 29 116 1753 0 119 120 114 -.4572 1.37795
 -1.524 18 119 1678 0 121 122 123 116 ?1 29 120 1755 0 118 124 116 .4572 1.37795
 -1.524 18 118 1676 0 125 111 122 120 ?1 29 124 1756 0 122 126 120 .4572 1.1811
 -1.524 18 122 1681 0 127 118 119 124 ?1 29 126 2006 0 123 128 124 -.4572 1.5748
 -2.032 18 123 1937 0 129 119 130 126 ?1 29 128 2007 0 131 132 126 -.4572 1.5748
 -1.778 18 131 1932 0 133 134 135 128 ?1 29 132 2009 0 130 136 128 .4572 1.5748
 -1.778 18 130 1930 0 137 123 134 132 ?1 29 136 2010 0 134 138 132 .4572 1.37795
 -1.778 18 134 1935 0 139 130 131 136 ?1 29 138 2268 0 135 140 136 -.4572 1.7716
5 -2.286 18 135 2199 0 141 131 142 138 ?1 29 140 2269 0 143 144 138 -.4572 1.771
65 -2.032 18 143 2194 0 145 146 147 140 ?1 29 144 2271 0 142 148 140 .4572 1.771
65 -2.032 18 142 2192 0 149 135 146 144 ?1 29 148 2272 0 146 150 144 .4572 1.574
8 -2.032 18 146 2197 0 151 142 143 148 ?1 29 150 2538 0 147 152 148 -.4572 1.968
5 -2.54 18 147 2469 0 153 143 154 150 ?1 29 152 2539 0 155 156 150 -.4572 1.9685
 -2.286 18 155 2464 0 157 158 159 152 ?1 29 156 2541 0 154 160 152 .4572 1.9685
 -2.286 18 154 2462 0 161 147 158 156 ?1 29 160 2542 0 158 162 156 .4572 1.77165
 -2.286 18 158 2467 0 163 154 155 160 ?1 29 162 2816 0 159 164 160 -.4572 2.1653
5 -2.794 18 159 2747 0 165 155 166 162 ?1 29 164 2817 0 167 168 162 -.4572 2.165
35 -2.54 18 167 2742 0 169 170 171 164 ?1 29 168 2819 0 166 172 164 .4572 2.1653
5 -2.54 18 166 2740 0 173 159 170 168 ?1 29 172 2820 0 170 174 168 .4572 1.9685
 -2.54 18 170 2745 0 175 166 167 172 ?1 29 174 3102 0 171 176 172 -.4572 2.3622
 -3.048 18 171 3033 0 177 167 178 174 ?1 29 176 3103 0 179 180 174 -.4572 2.3622
 -2.794 18 179 3028 0 181 182 183 176 ?1 29 180 3105 0 178 184 176 .4572 2.3622
 -2.794 18 178 3026 0 185 171 182 180 ?1 29 184 3106 0 182 186 180 .4572 2.16535
 -2.794 18 182 3031 0 187 178 179 184 ?1 29 186 3396 0 183 188 184 -.4572 2.5590
5 -3.302 18 183 3327 0 189 179 190 186 ?1 29 188 3397 0 191 192 186 -.4572 2.559
05 -3.048 18 191 3322 0 193 194 195 188 ?1 29 192 3399 0 190 196 188 .4572 2.559
05 -3.048 18 190 3320 0 197 183 194 192 ?1 29 196 3400 0 194 198 192 .4572 2.362
2 -3.048 18 194 3325 0 199 190 191 196 ?1 29 198 3698 0 195 200 196 -.4572 2.755
9 -3.556 18 195 3629 0 201 191 202 198 ?1 29 200 3699 0 203 204 198 -.4572 2.755
9 -3.302 18 203 3624 0 205 206 207 200 ?1 29 204 3701 0 202 208 200 .4572 2.7559
 -3.302 18 202 3622 0 209 195 206 204 ?1 29 208 3702 0 206 210 204 .4572 2.55905
 -3.302 18 206 3627 0 211 202 203 208 ?1 29 210 4008 0 207 212 208 -.4572 2.9527
5 -3.81 18 207 3939 0 213 203 214 210 ?1 29 212 4009 0 215 216 210 -.4572 2.9527
5 -3.556 18 215 3934 0 217 218 219 212 ?1 29 216 4011 0 214 220 212 .4572 2.9527
5 -3.556 18 214 3932 0 221 207 218 216 ?1 29 220 4012 0 218 222 216 .4572 2.7559
 -3.556 18 218 3937 0 223 214 215 220 ?1 29 222 4326 0 219 224 220 -.4572 3.1496
 -4.064 18 219 4257 0 225 215 226 222 ?1 29 224 4327 0 227 228 222 -.4572 3.1496
 -3.81 18 227 4252 0 229 230 231 224 ?1 29 228 4329 0 226 232 224 .4572 3.1496 -
3.81 18 226 4250 0 233 219 230 228 ?1 29 232 4330 0 230 234 228 .4572 2.95275 -3
.81 18 230 4255 0 235 226 227 232 ?1 29 234 4652 0 231 236 232 -.4572 3.34645 -4
.318 18 231 4583 0 237 227 238 234 ?1 29 236 4653 0 239 240 234 -.4572 3.34645 -
4.064 18 239 4578 0 241 242 243 236 ?1 29 240 4655 0 238 244 236 .4572 3.34645 -
4.064 18 238 4576 0 245 231 242 240 ?1 29 244 4656 0 242 246 240 .4572 3.1496 -4
.064 18 242 4581 0 247 238 239 244 ?1 29 246 4986 0 243 248 244 -.4572 3.5433 -4
.572 18 243 4917 0 249 239 250 246 ?1 29 248 4987 0 251 252 246 -.4572 3.5433 -4
.318 18 251 4912 0 253 254 255 248 ?1 29 252 4989 0 250 256 248 .4572 3.5433 -4.
318 18 250 4910 0 257 243 254 252 ?1 29 256 4990 0 254 258 252 .4572 3.34645 -4.
318 18 254 4915 0 259 250 251 256 ?1 29 258 5203 0 260 261 256 -.4572 3.74015 -4
.572 18 260 5134 0 262 263 264 258 ?1 29 261 5205 0 255 265 258 .4572 3.74015 -4
.572 18 255 5131 0 266 251 263 261 ?1 29 265 5206 0 263 267 261 .4572 3.5433 -4.
572 18 263 5136 0 268 255 260 265 ?1 29 267 5207 0 264 269 265 .4572 3.5433 -4.9
022 18 264 5130 0 270 260 271 267 ?1 29 269 5208 0 271 272 267 .4572 3.74015 -4.
9022 18 271 5135 0 273 264 274 269 ?1 29 272 5209 0 274 275 269 -.4572 3.74015 -
4.9022 18 274 5133 0 276 271 277 272 ?1 29 275 5210 0 277 0 272 -.4572 3.5433 -4
.9022 18 277 5138 0 278 274 0 275 ?1 17 278 0 279 280 276 277 281 282 0 283 -15
 255 279 5029 0 278 284 0 17 280 0 279 60 278 43 285 286 0 287 -17 276 0 279 278
 288 274 262 289 0 281 -17 281 0 290 291 283 274 278 282 0 292 +16 282 5126 0 ?2
81 293 0 294 0 0 1 17 283 0 290 281 270 277 295 296 0 285 -15 290 5176 0 283 297
 0 17 270 0 290 283 291 264 298 299 0 300 +17 295 0 301 67 285 264 283 296 0 0 +
16 296 381 0 ?295 302 286 303 0 0 1 17 285 0 301 295 287 277 280 286 0 0 +15 301
 4705 0 67 304 0 17 287 0 301 285 67 43 305 306 0 0 +16 286 353 0 ?285 296 306 3
07 0 0 1 16 306 350 0 ?287 286 308 309 0 0 1 30 307 469 0 286 309 303 0 +-.4572
 3.5433 -4.9022 0 .612571665435814 -.790415052175244 30 309 470 0 306 310 307 0
 +.4572 -277555756156289e-31 -.3302 -1 0 0 30 303 468 0 296 307 311 0 +.4572 3.5
433 -4.9022 1 0 0 30 311 456 0 302 303 312 0 +.4572 .3937 -.508 1 0 0 16 302 330
 0 ?313 314 296 311 0 0 1 30 312 7 0 315 311 316 0 +.4572 .19685 -.254 0 -1 0 16
 315 5 0 ?37 40 317 312 0 0 1 30 316 19 0 40 312 318 0 +.4572 .3937 -.254 0 1748
38271594513e-29 1 16 40 313 0 ?33 319 315 316 0 0 1 30 318 74 0 314 316 320 0 +-
.4572 .19685 -.254 0 -1 0 16 314 62 0 ?321 317 302 318 0 0 1 30 320 71 0 317 318
 322 0 +-.4572 .3937 -.254 0 174838271594513e-29 1 16 317 303 0 ?42 315 314 320
 0 0 1 30 322 95 0 319 320 20 0 +.4572 .3937 -.254 -1 0 0 16 319 79 0 ?323 24 40
 322 0 0 1 30 20 98 0 24 322 7 0 +.4572 .19685 -.254 -1 0 0 16 24 82 0 ?52 10 31
9 20 0 0 1 17 52 0 324 56 49 50 325 24 0 326 +15 324 558 0 49 327 0 17 56 0 324
 328 52 54 326 329 0 330 +17 49 0 324 52 328 47 63 331 0 37 -17 325 0 332 333 32
1 47 52 24 0 0 -17 326 0 279 334 335 50 56 329 0 321 -17 334 0 279 336 326 34 32
1 314 0 0 -17 335 0 279 326 60 54 337 338 0 0 -16 329 524 0 ?56 339 340 341 0 0
 1 17 321 0 332 325 323 50 334 314 0 0 +15 332 89 0 321 18 0 17 323 0 332 321 33
3 34 41 319 0 334 +17 333 0 332 323 325 26 37 315 0 0 -17 41 0 342 39 42 26 323
 319 0 333 -15 342 323 0 343 16 0 17 39 0 342 343 41 72 33 40 0 0 -17 42 0 342 4
1 343 34 336 317 0 323 +17 343 0 342 42 39 73 313 302 0 336 -17 336 0 279 344 33
4 73 42 317 0 0 -17 344 0 279 32 336 69 75 345 0 0 -17 32 0 279 30 344 11 71 346
 0 23 -17 75 0 347 313 348 73 344 345 0 343 +16 345 728 0 ?75 346 349 350 0 0 1
 16 346 724 0 ?71 351 345 352 0 0 1 16 349 947 0 ?353 345 354 355 0 0 1 30 350 8
07 0 345 356 352 0 +-.4572 .3937 -.508 0 -1 0 30 356 808 0 357 358 350 0 +.4572
 .59055 -.508 0 174838271594513e-29 1 30 352 805 0 346 350 359 0 +-.4572 .59055
 -.508 0 174838271594513e-29 1 30 359 804 0 360 352 361 0 +.4572 .59055 -.508 -1
 0 0 16 360 729 0 ?348 338 357 359 0 0 1 30 361 617 0 339 359 362 0 +.4572 0 0 0
 -1 0 16 339 527 0 ?363 364 329 361 0 0 1 30 362 616 0 364 361 365 0 +.4572 0 0
 0 0 -1 16 364 528 0 ?366 331 339 362 0 0 1 30 365 615 0 331 362 367 0 +.4572 .1
9685 0 0 174838271594513e-29 1 16 331 526 0 ?63 368 364 365 0 0 1 30 367 614 0 3
38 365 369 0 +-.4572 0 0 0 -1 0 16 338 530 0 ?337 340 360 367 0 0 1 30 369 613 0
 340 367 341 0 +-.4572 0 0 0 0 -1 16 340 532 0 ?46 329 338 369 0 0 1 30 341 612
 0 329 369 370 0 +-.4572 .19685 0 0 174838271594513e-29 1 30 370 611 0 368 341 3
71 0 +.4572 .19685 0 -1 0 0 16 368 531 0 ?330 372 331 370 0 0 1 30 371 610 0 372
 370 310 0 +.4572 0 0 -1 0 0 16 372 533 0 ?373 308 368 371 0 0 1 30 310 471 0 30
8 371 309 0 +.4572 3.5433 -4.9022 0 -.612571665435814 .790415052175244 16 308 34
7 0 ?67 306 372 310 0 0 1 17 67 0 301 287 295 61 300 308 0 366 +17 300 0 36 298
 366 264 67 308 0 295 -17 366 0 36 300 363 61 65 364 0 305 +15 36 5217 0 268 374
 0 17 363 0 36 366 63 57 375 339 0 376 +17 65 0 377 373 305 57 366 364 0 363 -17
 305 0 377 65 46 61 287 306 0 0 -15 377 577 0 46 378 0 17 46 0 377 305 373 43 60
 340 0 280 +17 373 0 377 46 65 58 376 372 0 337 +17 60 0 279 335 280 58 46 340 0
 373 -17 376 0 379 375 337 57 373 372 0 0 -17 337 0 379 376 330 58 335 338 0 0 +
15 379 572 0 337 380 0 17 330 0 379 337 375 54 328 368 0 335 +17 375 0 379 330 3
76 53 363 339 0 0 -17 328 0 324 49 56 53 330 368 0 375 -14 255 380 569 381 ?378
 327 379 5 382 -0 0 378 327 22 81 1 381 5631 383 380 384 0 0 385 386 14 378 573
 385 ?387 380 377 5 388 -0 0 387 380 22 14 327 554 389 ?380 304 324 5 390 -0 0 3
80 304 22 50 382 599 0 380 388 391 0 +.4572 0 0 0 0 -1 -1 0 0 13 22 34 0 0 0 0 0
 0 9 16 14 16 324 392 ?18 0 342 5 19 -0 0 18 0 22 81 1 392 5637 383 16 393 0 389
 394 395 14 18 90 394 ?374 16 332 5 6 -0 0 374 16 22 50 19 91 0 16 396 6 0 +.457
2 .3937 -.254 0 -1 174838271594513e-29 0 -174838271594513e-29 -1 50 396 70 0 284
 397 19 0 +-.4572 .19685 -.254 -1 0 0 0 0 1 14 284 48 398 ?304 374 279 5 396 +0
 0 304 374 22 50 397 3 0 374 391 396 0 +.4572 .19685 -.254 -1 0 0 0 0 1 14 374 1
 399 ?284 18 36 5 397 -0 0 284 18 22 50 391 453 0 304 382 397 0 +0 -.15987817258
88325 -.1239055837563452 0 -.790415052175244 -.612571665435814 0 .61257166543581
4 -.790415052175244 14 304 422 400 ?327 284 301 5 391 +0 0 327 284 22 81 1 400 5
645 383 304 401 0 399 402 403 80 7 CCCCCDI12 legal_owners0 16 1 lCZ1 383 404 405
 9000 1 1 1 1 1 1 1 1 0 FFFFTFTFFFFFFFFF1 81 3 401 5644 406 304 407 400 408 409
 410 0 0 81 1 399 5643 383 374 408 0 398 400 411 81 1 402 5647 383 387 409 0 400
 412 413 82 255 1 403 1472462998 14 387 750 402 ?414 378 415 5 416 -0 0 414 378
 22 81 3 409 5646 406 387 417 402 401 418 419 0 0 81 1 412 5649 383 414 418 0 40
2 420 421 82 1 413 1510932630 14 414 765 412 ?422 387 347 5 423 -0 0 422 387 22
 81 3 418 5648 406 414 424 412 409 425 426 0 0 81 1 420 5651 383 422 425 0 412 4
27 428 82 1 421 1502019734 14 422 981 420 ?429 414 430 5 431 -0 0 429 414 22 81
 3 425 5650 406 422 432 420 418 433 434 0 0 81 1 427 5653 383 429 433 0 420 435
 436 82 1 428 1532952726 14 429 986 427 ?437 422 27 5 438 -0 0 437 422 22 81 3 4
33 5652 406 429 439 427 425 440 441 0 0 81 1 435 5655 383 437 440 0 427 442 443
 82 1 436 1523843222 14 437 1211 435 ?444 429 445 5 446 -0 0 444 429 22 81 3 440
 5654 406 437 447 435 433 448 449 0 0 81 1 442 5657 383 444 448 0 435 450 451 82
 1 443 1555562646 14 444 1216 442 ?452 437 453 5 454 -0 0 452 437 22 81 3 448 56
56 406 444 455 442 440 456 457 0 0 81 1 450 5659 383 452 456 0 442 458 459 82 1
 451 1546190998 14 452 1449 450 ?460 444 461 5 462 -0 0 460 444 22 81 3 456 5658
 406 452 463 450 448 464 465 0 0 81 1 458 5661 383 460 464 0 450 466 467 82 1 45
9 1578696854 14 460 1454 458 ?468 452 469 5 470 -0 0 468 452 22 81 3 464 5660 40
6 460 471 458 456 472 473 0 0 81 1 466 5663 383 468 472 0 458 474 475 82 1 467 1
569063062 14 468 1695 466 ?476 460 477 5 478 -0 0 476 460 22 81 3 472 5662 406 4
68 479 466 464 480 481 0 0 81 1 474 5665 383 476 480 0 466 482 483 82 1 475 1602
355350 14 476 1700 474 ?484 468 485 5 486 -0 0 484 468 22 81 3 480 5664 406 476
 487 474 472 488 489 0 0 81 1 482 5667 383 484 488 0 474 490 491 82 1 483 159245
9414 14 484 1949 482 ?492 476 493 5 494 -0 0 492 476 22 81 3 488 5666 406 484 49
5 482 480 496 497 0 0 81 1 490 5669 383 492 496 0 482 498 499 82 1 491 162653813
4 14 492 1954 490 ?500 484 501 5 502 -0 0 500 484 22 81 3 496 5668 406 492 503 4
90 488 504 505 0 0 81 1 498 5671 383 500 504 0 490 506 507 82 1 499 1616380054 1
4 500 2211 498 ?508 492 509 5 510 -0 0 508 492 22 81 3 504 5670 406 500 511 498
 496 512 513 0 0 81 1 506 5673 383 508 512 0 498 514 515 82 1 507 1651245206 14
 508 2216 506 ?516 500 517 5 518 -0 0 516 500 22 81 3 512 5672 406 508 519 506 5
04 520 521 0 0 81 1 514 5675 383 516 520 0 506 522 523 82 1 515 1640824982 14 51
6 2481 514 ?524 508 525 5 526 -0 0 524 508 22 81 3 520 5674 406 516 527 514 512
 528 529 0 0 81 1 522 5677 383 524 528 0 514 530 531 82 1 523 1676476566 14 524
 2486 522 ?532 516 533 5 534 -0 0 532 516 22 81 3 528 5676 406 524 535 522 520 5
36 537 0 0 81 1 530 5679 383 532 536 0 522 538 539 82 1 531 1665794198 14 532 27
59 530 ?540 524 541 5 542 -0 0 540 524 22 81 3 536 5678 406 532 543 530 528 544
 545 0 0 81 1 538 5681 383 540 544 0 530 546 547 82 1 539 1702232214 14 540 2764
 538 ?548 532 549 5 550 -0 0 548 532 22 81 3 544 5680 406 540 551 538 536 552 55
3 0 0 81 1 546 5683 383 548 552 0 538 554 555 82 1 547 1691287702 14 548 3045 54
6 ?556 540 557 5 558 -0 0 556 540 22 81 3 552 5682 406 548 559 546 544 560 561 0
 0 81 1 554 5685 383 556 560 0 546 562 563 82 1 555 1728512150 14 556 3050 554 ?
564 548 565 5 566 -0 0 564 548 22 81 3 560 5684 406 556 567 554 552 568 569 0 0
 81 1 562 5687 383 564 568 0 554 570 571 82 1 563 1717305494 14 564 3339 562 ?57
2 556 573 5 574 -0 0 572 556 22 81 3 568 5686 406 564 575 562 560 576 577 0 0 81
 1 570 5689 383 572 576 0 562 578 579 82 1 571 1755316374 14 572 3344 570 ?580 5
64 581 5 582 -0 0 580 564 22 81 3 576 5688 406 572 583 570 568 584 585 0 0 81 1
 578 5691 383 580 584 0 570 586 587 82 1 579 1743847574 14 580 3641 578 ?588 572
 589 5 590 -0 0 588 572 22 81 3 584 5690 406 580 591 578 576 592 593 0 0 81 1 58
6 5693 383 588 592 0 578 594 595 82 1 587 1782644886 14 588 3646 586 ?596 580 59
7 5 598 -0 0 596 580 22 81 3 592 5692 406 588 599 586 584 600 601 0 0 81 1 594 5
695 383 596 600 0 586 602 603 82 1 595 1770913942 14 596 3951 594 ?604 588 605 5
 606 -0 0 604 588 22 81 3 600 5694 406 596 607 594 592 608 609 0 0 81 1 602 5697
 383 604 608 0 594 610 611 82 1 603 1810497686 14 604 3956 602 ?612 596 613 5 61
4 -0 0 612 596 22 81 3 608 5696 406 604 615 602 600 616 617 0 0 81 1 610 5699 38
3 612 616 0 602 618 619 82 1 611 1798504598 14 612 4269 610 ?620 604 621 5 622 -
0 0 620 604 22 81 3 616 5698 406 612 623 610 608 624 625 0 0 81 1 618 5701 383 6
20 624 0 610 626 627 82 1 619 1838874774 14 620 4274 618 ?628 612 629 5 630 -0 0
 628 612 22 81 3 624 5700 406 620 631 618 616 632 633 0 0 81 1 626 5703 383 628
 632 0 618 634 635 82 1 627 1826619542 14 628 4595 626 ?636 620 637 5 638 -0 0 6
36 620 22 81 3 632 5702 406 628 639 626 624 640 641 0 0 81 1 634 5705 383 636 64
0 0 626 642 643 82 1 635 1867776150 14 636 4600 634 ?644 628 645 5 646 -0 0 644
 628 22 81 3 640 5704 406 636 647 634 632 648 649 0 0 81 1 642 5707 383 644 648
 0 634 650 651 82 1 643 1855258774 14 644 4929 642 ?652 636 653 5 654 -0 0 652 6
36 22 81 3 648 5706 406 644 655 642 640 656 657 0 0 81 1 650 5709 383 652 656 0
 642 658 659 82 1 651 1897201814 14 652 4934 650 ?660 644 661 5 662 -0 0 660 644
 22 81 3 656 5708 406 652 663 650 648 664 665 0 0 81 1 658 5711 383 660 664 0 65
0 666 667 82 1 659 1884422294 14 660 5149 658 ?668 652 669 5 670 -0 0 668 652 22
 81 3 664 5710 406 660 671 658 656 672 673 0 0 81 1 666 5713 383 668 672 0 658 6
74 675 82 1 667 1914110102 14 668 5158 666 ?297 660 676 5 677 -0 0 297 660 22 81
 3 672 5712 406 668 678 666 664 679 680 0 0 81 1 674 5715 383 297 679 0 666 0 68
1 82 1 675 1913913494 14 297 5173 674 ?0 668 290 5 682 +0 0 0 668 22 81 3 679 57
14 406 297 683 674 672 0 684 0 0 82 1 681 1915355286 80 3 406 685 686 9000 0 0 0
 0 3 5 0 0 0 FFFFTFFFFFFFFFFF1 1 1 81 1 683 5402 687 297 0 679 678 0 688 82 6 68
4 0 406303066 31059261 0 0 0 80 1 687 0 689 8001 0 0 0 0 3 5 0 0 0 FFFFTFTFFFFFF
FFF2 81 1 678 5401 687 668 0 672 671 683 690 83 255 3 688 .792156862745098 .8196
07843137255 .933333333333333 81 1 671 5400 687 660 0 664 663 678 691 83 3 690 .7
92156862745098 .819607843137255 .933333333333333 81 1 663 5399 687 652 0 656 655
 671 692 83 3 691 .792156862745098 .819607843137255 .933333333333333 81 1 655 53
98 687 644 0 648 647 663 693 83 3 692 .792156862745098 .819607843137255 .9333333
33333333 81 1 647 5397 687 636 0 640 639 655 694 83 3 693 .792156862745098 .8196
07843137255 .933333333333333 81 1 639 5396 687 628 0 632 631 647 695 83 3 694 .7
92156862745098 .819607843137255 .933333333333333 81 1 631 5395 687 620 0 624 623
 639 696 83 3 695 .792156862745098 .819607843137255 .933333333333333 81 1 623 53
94 687 612 0 616 615 631 697 83 3 696 .792156862745098 .819607843137255 .9333333
33333333 81 1 615 5393 687 604 0 608 607 623 698 83 3 697 .792156862745098 .8196
07843137255 .933333333333333 81 1 607 5392 687 596 0 600 599 615 699 83 3 698 .7
92156862745098 .819607843137255 .933333333333333 81 1 599 5391 687 588 0 592 591
 607 700 83 3 699 .792156862745098 .819607843137255 .933333333333333 81 1 591 53
90 687 580 0 584 583 599 701 83 3 700 .792156862745098 .819607843137255 .9333333
33333333 81 1 583 5389 687 572 0 576 575 591 702 83 3 701 .792156862745098 .8196
07843137255 .933333333333333 81 1 575 5388 687 564 0 568 567 583 703 83 3 702 .7
92156862745098 .819607843137255 .933333333333333 81 1 567 5387 687 556 0 560 559
 575 704 83 3 703 .792156862745098 .819607843137255 .933333333333333 81 1 559 53
86 687 548 0 552 551 567 705 83 3 704 .792156862745098 .819607843137255 .9333333
33333333 81 1 551 5385 687 540 0 544 543 559 706 83 3 705 .792156862745098 .8196
07843137255 .933333333333333 81 1 543 5384 687 532 0 536 535 551 707 83 3 706 .7
92156862745098 .819607843137255 .933333333333333 81 1 535 5383 687 524 0 528 527
 543 708 83 3 707 .792156862745098 .819607843137255 .933333333333333 81 1 527 53
82 687 516 0 520 519 535 709 83 3 708 .792156862745098 .819607843137255 .9333333
33333333 81 1 519 5381 687 508 0 512 511 527 710 83 3 709 .792156862745098 .8196
07843137255 .933333333333333 81 1 511 5380 687 500 0 504 503 519 711 83 3 710 .7
92156862745098 .819607843137255 .933333333333333 81 1 503 5379 687 492 0 496 495
 511 712 83 3 711 .792156862745098 .819607843137255 .933333333333333 81 1 495 53
78 687 484 0 488 487 503 713 83 3 712 .792156862745098 .819607843137255 .9333333
33333333 81 1 487 5377 687 476 0 480 479 495 714 83 3 713 .792156862745098 .8196
07843137255 .933333333333333 81 1 479 5376 687 468 0 472 471 487 715 83 3 714 .7
92156862745098 .819607843137255 .933333333333333 81 1 471 5375 687 460 0 464 463
 479 716 83 3 715 .792156862745098 .819607843137255 .933333333333333 81 1 463 53
74 687 452 0 456 455 471 717 83 3 716 .792156862745098 .819607843137255 .9333333
33333333 81 1 455 5373 687 444 0 448 447 463 718 83 3 717 .792156862745098 .8196
07843137255 .933333333333333 81 1 447 5372 687 437 0 440 439 455 719 83 3 718 .7
92156862745098 .819607843137255 .933333333333333 81 1 439 5371 687 429 0 433 432
 447 720 83 3 719 .792156862745098 .819607843137255 .933333333333333 81 1 432 53
70 687 422 0 425 424 439 721 83 3 720 .792156862745098 .819607843137255 .9333333
33333333 81 1 424 5369 687 414 0 418 417 432 722 83 3 721 .792156862745098 .8196
07843137255 .933333333333333 81 1 417 5368 687 387 0 409 723 424 724 83 3 722 .7
92156862745098 .819607843137255 .933333333333333 81 1 723 5367 687 378 0 725 726
 417 727 83 3 724 .792156862745098 .819607843137255 .933333333333333 81 3 725 56
32 406 378 723 385 384 728 729 0 0 81 1 726 5366 687 380 0 384 730 723 731 83 3
 727 .792156862745098 .819607843137255 .933333333333333 81 3 384 5630 406 380 72
6 381 0 725 732 0 0 81 1 730 5365 687 327 0 728 407 726 733 83 3 731 .7921568627
45098 .819607843137255 .933333333333333 81 3 728 5634 406 327 730 389 725 393 73
4 0 0 81 1 407 5364 687 304 0 401 735 730 736 83 3 733 .792156862745098 .8196078
43137255 .933333333333333 81 1 735 5363 687 284 0 737 738 407 739 83 3 736 .7921
56862745098 .819607843137255 .933333333333333 81 3 737 5640 406 284 735 398 740
 408 741 0 0 81 1 738 5362 687 374 0 408 742 735 743 83 3 739 .792156862745098 .
819607843137255 .933333333333333 81 3 408 5642 406 374 738 399 737 401 744 0 0 8
1 1 742 5361 687 18 0 740 745 738 746 83 3 743 .792156862745098 .819607843137255
 .933333333333333 81 3 740 5638 406 18 742 394 393 737 747 0 0 81 1 745 5360 687
 16 0 393 0 742 748 83 3 746 .792156862745098 .819607843137255 .933333333333333
 81 3 393 5636 406 16 745 392 728 740 749 0 0 83 3 748 .792156862745098 .8196078
43137255 .933333333333333 82 6 749 0 -1479908097 31059261 0 0 0 81 1 394 5639 38
3 18 740 0 392 398 750 82 6 747 0 144604251 31059260 0 0 0 81 1 398 5641 383 284
 737 0 394 399 751 82 1 750 507248790 82 1 751 506986646 82 6 744 0 -1479908097
 31059261 0 0 0 82 6 741 0 -1479908097 31059261 0 0 0 81 1 389 5635 383 327 728
 0 385 392 752 82 6 734 0 -1479908097 31059261 0 0 0 81 1 385 5633 383 378 725 0
 381 389 753 82 1 752 1493500054 82 1 753 1486618774 82 6 732 0 144604251 310592
60 0 0 0 82 6 729 0 406303066 31059261 0 0 0 79 255 15 689 SDL/TYSA_COLOUR79 18
 686 DOWNSTREAM_FACE_ID50 682 5184 0 297 0 677 0 +0 3.5433 -4.9022 0 0 -1 -1 0 0
 50 677 5181 0 668 682 670 0 +.4572 3.74015 -4.572 0 -1 174838271594513e-29 0 -1
74838271594513e-29 -1 50 670 5179 0 660 677 654 0 +.4572 3.5433 -4.572 0 0 -1 -1
 0 0 50 654 4966 0 644 670 662 0 +.4572 3.5433 -4.318 0 -1 174838271594513e-29 0
 -174838271594513e-29 -1 50 662 4964 0 652 654 638 0 +.4572 3.34645 -4.318 0 0 -
1 -1 0 0 50 638 4632 0 628 662 646 0 +.4572 3.34645 -4.064 0 -1 174838271594513e
-29 0 -174838271594513e-29 -1 50 646 4630 0 636 638 622 0 +.4572 3.1496 -4.064 0
 0 -1 -1 0 0 50 622 4306 0 612 646 630 0 +.4572 3.1496 -3.81 0 -1 17483827159451
3e-29 0 -174838271594513e-29 -1 50 630 4304 0 620 622 606 0 +.4572 2.95275 -3.81
 0 0 -1 -1 0 0 50 606 3988 0 596 630 614 0 +.4572 2.95275 -3.556 0 -1 1748382715
94513e-29 0 -174838271594513e-29 -1 50 614 3986 0 604 606 590 0 +.4572 2.7559 -3
.556 0 0 -1 -1 0 0 50 590 3678 0 580 614 598 0 +.4572 2.7559 -3.302 0 -1 1748382
71594513e-29 0 -174838271594513e-29 -1 50 598 3676 0 588 590 574 0 +.4572 2.5590
5 -3.302 0 0 -1 -1 0 0 50 574 3376 0 564 598 582 0 +.4572 2.55905 -3.048 0 -1 17
4838271594513e-29 0 -174838271594513e-29 -1 50 582 3374 0 572 574 558 0 +.4572 2
.3622 -3.048 0 0 -1 -1 0 0 50 558 3082 0 548 582 566 0 +.4572 2.3622 -2.794 0 -1
 174838271594513e-29 0 -174838271594513e-29 -1 50 566 3080 0 556 558 542 0 +.457
2 2.16535 -2.794 0 0 -1 -1 0 0 50 542 2796 0 532 566 550 0 +.4572 2.16535 -2.54
 0 -1 174838271594513e-29 0 -174838271594513e-29 -1 50 550 2794 0 540 542 526 0
 +.4572 1.9685 -2.54 0 0 -1 -1 0 0 50 526 2518 0 516 550 534 0 +.4572 1.9685 -2.
286 0 -1 174838271594513e-29 0 -174838271594513e-29 -1 50 534 2516 0 524 526 510
 0 +.4572 1.77165 -2.286 0 0 -1 -1 0 0 50 510 2248 0 500 534 518 0 +.4572 1.7716
5 -2.032 0 -1 174838271594513e-29 0 -174838271594513e-29 -1 50 518 2246 0 508 51
0 494 0 +.4572 1.5748 -2.032 0 0 -1 -1 0 0 50 494 1986 0 484 518 502 0 +.4572 1.
5748 -1.778 0 -1 174838271594513e-29 0 -174838271594513e-29 -1 50 502 1984 0 492
 494 478 0 +.4572 1.37795 -1.778 0 0 -1 -1 0 0 50 478 1732 0 468 502 486 0 +.457
2 1.37795 -1.524 0 -1 174838271594513e-29 0 -174838271594513e-29 -1 50 486 1730
 0 476 478 462 0 +.4572 1.1811 -1.524 0 0 -1 -1 0 0 50 462 1486 0 452 486 470 0
 +.4572 1.1811 -1.27 0 -1 174838271594513e-29 0 -174838271594513e-29 -1 50 470 1
484 0 460 462 446 0 +.4572 .98425 -1.27 0 0 -1 -1 0 0 50 446 1248 0 437 470 454
 0 +.4572 .98425 -1.016 0 -1 174838271594513e-29 0 -174838271594513e-29 -1 50 45
4 1246 0 444 446 431 0 +.4572 .7874 -1.016 0 0 -1 -1 0 0 50 431 1018 0 422 454 4
38 0 +.4572 .7874 -.762 0 -1 174838271594513e-29 0 -174838271594513e-29 -1 50 43
8 1016 0 429 431 416 0 +.4572 .59055 -.762 0 0 -1 -1 0 0 50 416 797 0 387 438 42
3 0 +.4572 .59055 -.508 0 -1 174838271594513e-29 0 -174838271594513e-29 -1 50 42
3 795 0 414 416 390 0 +.4572 .3937 -.508 0 0 -1 -1 0 0 50 390 601 0 327 423 388
 0 +.4572 .19685 0 0 -1 174838271594513e-29 0 -174838271594513e-29 -1 50 388 600
 0 378 390 382 0 +.4572 0 0 0 1 0 0 0 1 82 6 680 0 406303066 31059261 0 0 0 15 6
76 5162 0 262 668 0 17 262 0 676 754 292 260 276 289 0 755 +17 754 0 676 273 262
 255 755 756 0 757 -17 292 0 676 262 273 274 291 293 0 0 -16 289 5121 0 ?262 758
 759 760 0 0 1 17 755 0 669 249 757 260 754 756 0 288 +15 669 5152 0 249 660 0 1
7 249 0 669 761 755 243 288 759 0 762 +17 757 0 669 755 761 255 268 758 0 0 -16
 756 5118 0 ?755 763 764 765 0 0 1 17 288 0 279 276 766 260 249 759 0 0 -17 766
 0 279 288 767 243 253 768 0 0 -16 759 5117 0 ?249 289 299 769 0 0 1 16 299 5128
 0 ?270 759 293 770 0 0 1 30 769 5193 0 759 771 760 0 +-.4572 3.5433 -4.572 0 -1
 0 30 771 5194 0 764 772 769 0 +.4572 3.74015 -4.572 0 174838271594513e-29 1 30
 760 5191 0 289 769 765 0 +-.4572 3.74015 -4.572 0 174838271594513e-29 1 30 765
 5190 0 756 760 773 0 +.4572 3.74015 -4.572 -1 0 0 30 773 4980 0 774 765 775 0 +
.4572 3.34645 -4.318 0 -1 0 16 774 4892 0 ?259 776 768 773 0 0 1 30 775 4978 0 7
76 773 777 0 +.4572 3.5433 -4.318 0 174838271594513e-29 1 16 776 4894 0 ?257 778
 774 775 0 0 1 30 777 4977 0 763 775 779 0 +-.4572 3.34645 -4.318 0 -1 0 16 763
 4897 0 ?237 768 756 777 0 0 1 30 779 4975 0 768 777 780 0 +-.4572 3.5433 -4.318
 0 174838271594513e-29 1 16 768 4896 0 ?253 774 763 779 0 0 1 30 780 4974 0 778
 779 781 0 +.4572 3.5433 -4.318 -1 0 0 16 778 4898 0 ?782 783 776 780 0 0 1 30 7
81 4972 0 783 780 784 0 +0 3.5433 -4.572 -1 0 0 16 783 4895 0 ?762 785 778 781 0
 0 1 30 784 4646 0 786 781 787 0 +.4572 3.1496 -4.064 0 -1 0 16 786 4558 0 ?247
 788 789 784 0 0 1 30 787 4644 0 788 784 790 0 +.4572 3.34645 -4.064 0 174838271
594513e-29 1 16 788 4560 0 ?245 791 786 787 0 0 1 30 790 4643 0 785 787 792 0 +-
.4572 3.1496 -4.064 0 -1 0 16 785 4563 0 ?225 789 783 790 0 0 1 30 792 4641 0 78
9 790 793 0 +-.4572 3.34645 -4.064 0 174838271594513e-29 1 16 789 4562 0 ?241 78
6 785 792 0 0 1 30 793 4640 0 791 792 794 0 +.4572 3.34645 -4.064 -1 0 0 16 791
 4564 0 ?795 796 788 793 0 0 1 30 794 4638 0 796 793 797 0 +0 3.34645 -4.318 -1
 0 0 16 796 4561 0 ?798 799 791 794 0 0 1 30 797 4320 0 800 794 801 0 +.4572 2.9
5275 -3.81 0 -1 0 16 800 4232 0 ?235 802 803 797 0 0 1 30 801 4318 0 802 797 804
 0 +.4572 3.1496 -3.81 0 174838271594513e-29 1 16 802 4234 0 ?233 805 800 801 0
 0 1 30 804 4317 0 799 801 806 0 +-.4572 2.95275 -3.81 0 -1 0 16 799 4237 0 ?213
 803 796 804 0 0 1 30 806 4315 0 803 804 807 0 +-.4572 3.1496 -3.81 0 1748382715
94513e-29 1 16 803 4236 0 ?229 800 799 806 0 0 1 30 807 4314 0 805 806 808 0 +.4
572 3.1496 -3.81 -1 0 0 16 805 4238 0 ?809 810 802 807 0 0 1 30 808 4312 0 810 8
07 811 0 +0 3.1496 -4.064 -1 0 0 16 810 4235 0 ?812 813 805 808 0 0 1 30 811 400
2 0 814 808 815 0 +.4572 2.7559 -3.556 0 -1 0 16 814 3914 0 ?223 816 817 811 0 0
 1 30 815 4000 0 816 811 818 0 +.4572 2.95275 -3.556 0 174838271594513e-29 1 16
 816 3916 0 ?221 819 814 815 0 0 1 30 818 3999 0 813 815 820 0 +-.4572 2.7559 -3
.556 0 -1 0 16 813 3919 0 ?201 817 810 818 0 0 1 30 820 3997 0 817 818 821 0 +-.
4572 2.95275 -3.556 0 174838271594513e-29 1 16 817 3918 0 ?217 814 813 820 0 0 1
 30 821 3996 0 819 820 822 0 +.4572 2.95275 -3.556 -1 0 0 16 819 3920 0 ?823 824
 816 821 0 0 1 30 822 3994 0 824 821 825 0 +0 2.95275 -3.81 -1 0 0 16 824 3917 0
 ?826 827 819 822 0 0 1 30 825 3692 0 828 822 829 0 +.4572 2.55905 -3.302 0 -1 0
 16 828 3604 0 ?211 830 831 825 0 0 1 30 829 3690 0 830 825 832 0 +.4572 2.7559
 -3.302 0 174838271594513e-29 1 16 830 3606 0 ?209 833 828 829 0 0 1 30 832 3689
 0 827 829 834 0 +-.4572 2.55905 -3.302 0 -1 0 16 827 3609 0 ?189 831 824 832 0
 0 1 30 834 3687 0 831 832 835 0 +-.4572 2.7559 -3.302 0 174838271594513e-29 1 1
6 831 3608 0 ?205 828 827 834 0 0 1 30 835 3686 0 833 834 836 0 +.4572 2.7559 -3
.302 -1 0 0 16 833 3610 0 ?837 838 830 835 0 0 1 30 836 3684 0 838 835 839 0 +0
 2.7559 -3.556 -1 0 0 16 838 3607 0 ?840 841 833 836 0 0 1 30 839 3390 0 842 836
 843 0 +.4572 2.3622 -3.048 0 -1 0 16 842 3302 0 ?199 844 845 839 0 0 1 30 843 3
388 0 844 839 846 0 +.4572 2.55905 -3.048 0 174838271594513e-29 1 16 844 3304 0
 ?197 847 842 843 0 0 1 30 846 3387 0 841 843 848 0 +-.4572 2.3622 -3.048 0 -1 0
 16 841 3307 0 ?177 845 838 846 0 0 1 30 848 3385 0 845 846 849 0 +-.4572 2.5590
5 -3.048 0 174838271594513e-29 1 16 845 3306 0 ?193 842 841 848 0 0 1 30 849 338
4 0 847 848 850 0 +.4572 2.55905 -3.048 -1 0 0 16 847 3308 0 ?851 852 844 849 0
 0 1 30 850 3382 0 852 849 853 0 +0 2.55905 -3.302 -1 0 0 16 852 3305 0 ?854 855
 847 850 0 0 1 30 853 3096 0 856 850 857 0 +.4572 2.16535 -2.794 0 -1 0 16 856 3
008 0 ?187 858 859 853 0 0 1 30 857 3094 0 858 853 860 0 +.4572 2.3622 -2.794 0
 174838271594513e-29 1 16 858 3010 0 ?185 861 856 857 0 0 1 30 860 3093 0 855 85
7 862 0 +-.4572 2.16535 -2.794 0 -1 0 16 855 3013 0 ?165 859 852 860 0 0 1 30 86
2 3091 0 859 860 863 0 +-.4572 2.3622 -2.794 0 174838271594513e-29 1 16 859 3012
 0 ?181 856 855 862 0 0 1 30 863 3090 0 861 862 864 0 +.4572 2.3622 -2.794 -1 0
 0 16 861 3014 0 ?865 866 858 863 0 0 1 30 864 3088 0 866 863 867 0 +0 2.3622 -3
.048 -1 0 0 16 866 3011 0 ?868 869 861 864 0 0 1 30 867 2810 0 870 864 871 0 +.4
572 1.9685 -2.54 0 -1 0 16 870 2722 0 ?175 872 873 867 0 0 1 30 871 2808 0 872 8
67 874 0 +.4572 2.16535 -2.54 0 174838271594513e-29 1 16 872 2724 0 ?173 875 870
 871 0 0 1 30 874 2807 0 869 871 876 0 +-.4572 1.9685 -2.54 0 -1 0 16 869 2727 0
 ?153 873 866 874 0 0 1 30 876 2805 0 873 874 877 0 +-.4572 2.16535 -2.54 0 1748
38271594513e-29 1 16 873 2726 0 ?169 870 869 876 0 0 1 30 877 2804 0 875 876 878
 0 +.4572 2.16535 -2.54 -1 0 0 16 875 2728 0 ?879 880 872 877 0 0 1 30 878 2802
 0 880 877 881 0 +0 2.16535 -2.794 -1 0 0 16 880 2725 0 ?882 883 875 878 0 0 1 3
0 881 2532 0 884 878 885 0 +.4572 1.77165 -2.286 0 -1 0 16 884 2444 0 ?163 886 8
87 881 0 0 1 30 885 2530 0 886 881 888 0 +.4572 1.9685 -2.286 0 174838271594513e
-29 1 16 886 2446 0 ?161 889 884 885 0 0 1 30 888 2529 0 883 885 890 0 +-.4572 1
.77165 -2.286 0 -1 0 16 883 2449 0 ?141 887 880 888 0 0 1 30 890 2527 0 887 888
 891 0 +-.4572 1.9685 -2.286 0 174838271594513e-29 1 16 887 2448 0 ?157 884 883
 890 0 0 1 30 891 2526 0 889 890 892 0 +.4572 1.9685 -2.286 -1 0 0 16 889 2450 0
 ?893 894 886 891 0 0 1 30 892 2524 0 894 891 895 0 +0 1.9685 -2.54 -1 0 0 16 89
4 2447 0 ?896 897 889 892 0 0 1 30 895 2262 0 898 892 899 0 +.4572 1.5748 -2.032
 0 -1 0 16 898 2174 0 ?151 900 901 895 0 0 1 30 899 2260 0 900 895 902 0 +.4572
 1.77165 -2.032 0 174838271594513e-29 1 16 900 2176 0 ?149 903 898 899 0 0 1 30
 902 2259 0 897 899 904 0 +-.4572 1.5748 -2.032 0 -1 0 16 897 2179 0 ?129 901 89
4 902 0 0 1 30 904 2257 0 901 902 905 0 +-.4572 1.77165 -2.032 0 174838271594513
e-29 1 16 901 2178 0 ?145 898 897 904 0 0 1 30 905 2256 0 903 904 906 0 +.4572 1
.77165 -2.032 -1 0 0 16 903 2180 0 ?907 908 900 905 0 0 1 30 906 2254 0 908 905
 909 0 +0 1.77165 -2.286 -1 0 0 16 908 2177 0 ?910 911 903 906 0 0 1 30 909 2000
 0 912 906 913 0 +.4572 1.37795 -1.778 0 -1 0 16 912 1912 0 ?139 914 915 909 0 0
 1 30 913 1998 0 914 909 916 0 +.4572 1.5748 -1.778 0 174838271594513e-29 1 16 9
14 1914 0 ?137 917 912 913 0 0 1 30 916 1997 0 911 913 918 0 +-.4572 1.37795 -1.
778 0 -1 0 16 911 1917 0 ?117 915 908 916 0 0 1 30 918 1995 0 915 916 919 0 +-.4
572 1.5748 -1.778 0 174838271594513e-29 1 16 915 1916 0 ?133 912 911 918 0 0 1 3
0 919 1994 0 917 918 920 0 +.4572 1.5748 -1.778 -1 0 0 16 917 1918 0 ?921 922 91
4 919 0 0 1 30 920 1992 0 922 919 923 0 +0 1.5748 -2.032 -1 0 0 16 922 1915 0 ?9
24 925 917 920 0 0 1 30 923 1746 0 926 920 927 0 +.4572 1.1811 -1.524 0 -1 0 16
 926 1658 0 ?127 928 929 923 0 0 1 30 927 1744 0 928 923 930 0 +.4572 1.37795 -1
.524 0 174838271594513e-29 1 16 928 1660 0 ?125 931 926 927 0 0 1 30 930 1743 0
 925 927 932 0 +-.4572 1.1811 -1.524 0 -1 0 16 925 1663 0 ?105 929 922 930 0 0 1
 30 932 1741 0 929 930 933 0 +-.4572 1.37795 -1.524 0 174838271594513e-29 1 16 9
29 1662 0 ?121 926 925 932 0 0 1 30 933 1740 0 931 932 934 0 +.4572 1.37795 -1.5
24 -1 0 0 16 931 1664 0 ?935 936 928 933 0 0 1 30 934 1738 0 936 933 937 0 +0 1.
37795 -1.778 -1 0 0 16 936 1661 0 ?938 939 931 934 0 0 1 30 937 1500 0 940 934 9
41 0 +.4572 .98425 -1.27 0 -1 0 16 940 1412 0 ?115 942 943 937 0 0 1 30 941 1498
 0 942 937 944 0 +.4572 1.1811 -1.27 0 174838271594513e-29 1 16 942 1414 0 ?113
 945 940 941 0 0 1 30 944 1497 0 939 941 946 0 +-.4572 .98425 -1.27 0 -1 0 16 93
9 1417 0 ?93 943 936 944 0 0 1 30 946 1495 0 943 944 947 0 +-.4572 1.1811 -1.27
 0 174838271594513e-29 1 16 943 1416 0 ?109 940 939 946 0 0 1 30 947 1494 0 945
 946 948 0 +.4572 1.1811 -1.27 -1 0 0 16 945 1418 0 ?949 950 942 947 0 0 1 30 94
8 1492 0 950 947 951 0 +0 1.1811 -1.524 -1 0 0 16 950 1415 0 ?952 953 945 948 0
 0 1 30 951 1262 0 954 948 955 0 +.4572 .7874 -1.016 0 -1 0 16 954 1174 0 ?103 9
56 957 951 0 0 1 30 955 1260 0 956 951 958 0 +.4572 .98425 -1.016 0 174838271594
513e-29 1 16 956 1176 0 ?101 959 954 955 0 0 1 30 958 1259 0 953 955 960 0 +-.45
72 .7874 -1.016 0 -1 0 16 953 1179 0 ?81 957 950 958 0 0 1 30 960 1257 0 957 958
 961 0 +-.4572 .98425 -1.016 0 174838271594513e-29 1 16 957 1178 0 ?97 954 953 9
60 0 0 1 30 961 1256 0 959 960 962 0 +.4572 .98425 -1.016 -1 0 0 16 959 1180 0 ?
963 964 956 961 0 0 1 30 962 1254 0 964 961 965 0 +0 .98425 -1.27 -1 0 0 16 964
 1177 0 ?966 31 959 962 0 0 1 30 965 1032 0 967 962 968 0 +.4572 .59055 -.762 0
 -1 0 16 967 944 0 ?91 969 970 965 0 0 1 30 968 1030 0 969 965 971 0 +.4572 .787
4 -.762 0 174838271594513e-29 1 16 969 946 0 ?89 354 967 968 0 0 1 30 971 1029 0
 31 968 972 0 +-.4572 .59055 -.762 0 -1 0 16 31 949 0 ?25 970 964 971 0 0 1 30 9
72 1027 0 970 971 973 0 +-.4572 .7874 -.762 0 174838271594513e-29 1 16 970 948 0
 ?85 967 31 972 0 0 1 30 973 1026 0 354 972 355 0 +.4572 .7874 -.762 -1 0 0 16 3
54 950 0 ?29 349 969 973 0 0 1 30 355 1024 0 349 973 358 0 +0 .7874 -1.016 -1 0
 0 30 358 810 0 351 355 356 0 +.4572 .3937 -.508 0 -1 0 16 351 725 0 ?38 357 346
 358 0 0 1 17 38 0 36 33 78 72 974 351 0 313 +16 357 727 0 ?78 360 351 356 0 0 1
 17 78 0 36 38 91 68 975 357 0 976 +17 91 0 36 78 89 86 977 967 0 28 +17 975 0 4
15 23 976 86 78 357 0 0 -17 976 0 415 975 71 68 348 360 0 974 -15 415 754 0 975
 387 0 17 71 0 415 976 23 69 32 346 0 348 +17 348 0 347 75 974 69 976 360 0 344
 +17 974 0 347 348 313 68 38 351 0 0 -15 347 768 0 75 414 0 17 313 0 347 974 75
 72 343 302 0 39 +17 23 0 415 71 975 11 28 10 0 0 +17 28 0 27 977 25 86 23 10 0
 975 -15 27 989 0 25 429 0 17 977 0 27 29 28 82 91 967 0 0 -17 29 0 27 25 977 83
 978 354 0 30 +17 978 0 430 979 85 82 29 354 0 977 -17 30 0 279 980 32 83 25 31
 0 0 -17 980 0 279 981 30 76 85 970 0 0 -17 981 0 279 982 980 95 81 953 0 0 -17
 85 0 430 978 353 83 980 970 0 29 +15 430 985 0 979 422 0 17 353 0 430 85 979 76
 983 349 0 980 +17 979 0 430 353 978 98 89 969 0 0 -17 983 0 453 984 81 98 353 3
49 0 979 -15 453 1219 0 81 444 0 17 984 0 453 963 983 94 103 954 0 0 -17 81 0 45
3 983 963 76 981 953 0 353 +17 963 0 453 81 984 95 985 959 0 981 +17 985 0 445 9
86 97 94 963 959 0 984 -15 445 1215 0 986 437 0 17 986 0 445 966 985 110 101 956
 0 0 -17 97 0 445 985 966 95 982 957 0 963 +17 966 0 445 97 986 87 987 964 0 982
 +17 982 0 279 988 981 87 97 957 0 0 -17 988 0 279 989 982 107 93 939 0 0 -17 98
9 0 279 990 988 99 109 943 0 0 -17 93 0 469 987 949 87 988 939 0 966 +15 469 145
7 0 93 460 0 17 987 0 469 991 93 110 966 964 0 986 -17 949 0 469 93 991 107 992
 945 0 988 +17 991 0 469 949 987 106 115 940 0 0 -17 992 0 461 993 109 106 949 9
45 0 991 -15 461 1453 0 993 452 0 17 993 0 461 952 992 122 113 942 0 0 -17 109 0
 461 992 952 107 989 943 0 949 +17 952 0 461 109 993 99 994 950 0 989 +17 994 0
 485 995 105 122 952 950 0 993 -15 485 1703 0 105 476 0 17 995 0 485 935 994 118
 127 926 0 0 -17 105 0 485 994 935 99 990 925 0 952 +17 935 0 485 105 995 119 99
6 931 0 990 +17 990 0 279 997 989 119 105 925 0 0 -17 997 0 279 998 990 111 121
 929 0 0 -17 998 0 279 999 997 131 117 911 0 0 -17 121 0 477 996 938 119 997 929
 0 935 +15 477 1699 0 1000 468 0 17 996 0 477 1000 121 118 935 931 0 995 -17 938
 0 477 121 1000 111 1001 936 0 997 +17 1000 0 477 938 996 134 125 928 0 0 -17 10
01 0 501 1002 117 134 938 936 0 1000 -15 501 1957 0 117 492 0 17 1002 0 501 921
 1001 130 139 912 0 0 -17 117 0 501 1001 921 111 998 911 0 938 +17 921 0 501 117
 1002 131 1003 917 0 998 +17 1003 0 493 1004 133 130 921 917 0 1002 -15 493 1953
 0 1004 484 0 17 1004 0 493 924 1003 146 137 914 0 0 -17 133 0 493 1003 924 131
 999 915 0 921 +17 924 0 493 133 1004 123 1005 922 0 999 +17 999 0 279 1006 998
 123 133 915 0 0 -17 1006 0 279 1007 999 143 129 897 0 0 -17 1007 0 279 1008 100
6 135 145 901 0 0 -17 129 0 517 1005 907 123 1006 897 0 924 +15 517 2219 0 129 5
08 0 17 1005 0 517 1009 129 146 924 922 0 1004 -17 907 0 517 129 1009 143 1010 9
03 0 1006 +17 1009 0 517 907 1005 142 151 898 0 0 -17 1010 0 509 1011 145 142 90
7 903 0 1009 -15 509 2215 0 1011 500 0 17 1011 0 509 910 1010 158 149 900 0 0 -1
7 145 0 509 1010 910 143 1007 901 0 907 +17 910 0 509 145 1011 135 1012 908 0 10
07 +17 1012 0 533 1013 141 158 910 908 0 1011 -15 533 2489 0 141 524 0 17 1013 0
 533 893 1012 154 163 884 0 0 -17 141 0 533 1012 893 135 1008 883 0 910 +17 893
 0 533 141 1013 155 1014 889 0 1008 +17 1008 0 279 1015 1007 155 141 883 0 0 -17
 1015 0 279 1016 1008 147 157 887 0 0 -17 1016 0 279 1017 1015 167 153 869 0 0 -
17 157 0 525 1014 896 155 1015 887 0 893 +15 525 2485 0 1018 516 0 17 1014 0 525
 1018 157 154 893 889 0 1013 -17 896 0 525 157 1018 147 1019 894 0 1015 +17 1018
 0 525 896 1014 170 161 886 0 0 -17 1019 0 549 1020 153 170 896 894 0 1018 -15 5
49 2767 0 153 540 0 17 1020 0 549 879 1019 166 175 870 0 0 -17 153 0 549 1019 87
9 147 1016 869 0 896 +17 879 0 549 153 1020 167 1021 875 0 1016 +17 1021 0 541 1
022 169 166 879 875 0 1020 -15 541 2763 0 1022 532 0 17 1022 0 541 882 1021 182
 173 872 0 0 -17 169 0 541 1021 882 167 1017 873 0 879 +17 882 0 541 169 1022 15
9 1023 880 0 1017 +17 1017 0 279 1024 1016 159 169 873 0 0 -17 1024 0 279 1025 1
017 179 165 855 0 0 -17 1025 0 279 1026 1024 171 181 859 0 0 -17 165 0 565 1023
 865 159 1024 855 0 882 +15 565 3053 0 165 556 0 17 1023 0 565 1027 165 182 882
 880 0 1022 -17 865 0 565 165 1027 179 1028 861 0 1024 +17 1027 0 565 865 1023 1
78 187 856 0 0 -17 1028 0 557 1029 181 178 865 861 0 1027 -15 557 3049 0 1029 54
8 0 17 1029 0 557 868 1028 194 185 858 0 0 -17 181 0 557 1028 868 179 1025 859 0
 865 +17 868 0 557 181 1029 171 1030 866 0 1025 +17 1030 0 581 1031 177 194 868
 866 0 1029 -15 581 3347 0 177 572 0 17 1031 0 581 851 1030 190 199 842 0 0 -17
 177 0 581 1030 851 171 1026 841 0 868 +17 851 0 581 177 1031 191 1032 847 0 102
6 +17 1026 0 279 1033 1025 191 177 841 0 0 -17 1033 0 279 1034 1026 183 193 845
 0 0 -17 1034 0 279 1035 1033 203 189 827 0 0 -17 193 0 573 1032 854 191 1033 84
5 0 851 +15 573 3343 0 1036 564 0 17 1032 0 573 1036 193 190 851 847 0 1031 -17
 854 0 573 193 1036 183 1037 852 0 1033 +17 1036 0 573 854 1032 206 197 844 0 0
 -17 1037 0 597 1038 189 206 854 852 0 1036 -15 597 3649 0 189 588 0 17 1038 0 5
97 837 1037 202 211 828 0 0 -17 189 0 597 1037 837 183 1034 827 0 854 +17 837 0
 597 189 1038 203 1039 833 0 1034 +17 1039 0 589 1040 205 202 837 833 0 1038 -15
 589 3645 0 1040 580 0 17 1040 0 589 840 1039 218 209 830 0 0 -17 205 0 589 1039
 840 203 1035 831 0 837 +17 840 0 589 205 1040 195 1041 838 0 1035 +17 1035 0 27
9 1042 1034 195 205 831 0 0 -17 1042 0 279 1043 1035 215 201 813 0 0 -17 1043 0
 279 1044 1042 207 217 817 0 0 -17 201 0 613 1041 823 195 1042 813 0 840 +15 613
 3959 0 201 604 0 17 1041 0 613 1045 201 218 840 838 0 1040 -17 823 0 613 201 10
45 215 1046 819 0 1042 +17 1045 0 613 823 1041 214 223 814 0 0 -17 1046 0 605 10
47 217 214 823 819 0 1045 -15 605 3955 0 1047 596 0 17 1047 0 605 826 1046 230 2
21 816 0 0 -17 217 0 605 1046 826 215 1043 817 0 823 +17 826 0 605 217 1047 207
 1048 824 0 1043 +17 1048 0 629 1049 213 230 826 824 0 1047 -15 629 4277 0 213 6
20 0 17 1049 0 629 809 1048 226 235 800 0 0 -17 213 0 629 1048 809 207 1044 799
 0 826 +17 809 0 629 213 1049 227 1050 805 0 1044 +17 1044 0 279 1051 1043 227 2
13 799 0 0 -17 1051 0 279 1052 1044 219 229 803 0 0 -17 1052 0 279 1053 1051 239
 225 785 0 0 -17 229 0 621 1050 812 227 1051 803 0 809 +15 621 4273 0 1054 612 0
 17 1050 0 621 1054 229 226 809 805 0 1049 -17 812 0 621 229 1054 219 1055 810 0
 1051 +17 1054 0 621 812 1050 242 233 802 0 0 -17 1055 0 645 1056 225 242 812 81
0 0 1054 -15 645 4603 0 225 636 0 17 1056 0 645 795 1055 238 247 786 0 0 -17 225
 0 645 1055 795 219 1052 785 0 812 +17 795 0 645 225 1056 239 1057 791 0 1052 +1
7 1057 0 637 1058 241 238 795 791 0 1056 -15 637 4599 0 1058 628 0 17 1058 0 637
 798 1057 254 245 788 0 0 -17 241 0 637 1057 798 239 1053 789 0 795 +17 798 0 63
7 241 1058 231 1059 796 0 1053 +17 1053 0 279 767 1052 231 241 789 0 0 -17 767 0
 279 766 1053 251 237 763 0 0 -17 237 0 661 1059 782 231 767 763 0 798 +15 661 4
937 0 237 652 0 17 1059 0 661 1060 237 254 798 796 0 1058 -17 782 0 661 237 1060
 251 1061 778 0 767 +17 1060 0 661 782 1059 250 259 774 0 0 -17 1061 0 653 1062
 253 250 782 778 0 1060 -15 653 4933 0 1062 644 0 17 1062 0 653 762 1061 263 257
 776 0 0 -17 253 0 653 1061 762 251 766 768 0 782 +17 762 0 653 253 1062 243 761
 783 0 766 +17 761 0 669 757 249 263 762 783 0 1062 -17 257 0 36 259 268 250 106
2 776 0 1061 +17 259 0 36 245 257 254 1060 774 0 1059 +17 268 0 36 257 266 263 7
57 758 0 761 +17 266 0 36 268 298 255 273 764 0 754 +16 758 5113 0 ?268 764 289
 772 0 0 1 16 764 5115 0 ?266 756 758 771 0 0 1 30 772 5196 0 758 770 771 0 +.45
72 3.5433 -4.572 0 -1 0 30 770 5197 0 299 1063 772 0 +.4572 3.74015 -4.9022 0 -1
 0 30 1063 5198 0 293 294 770 0 +-.4572 3.74015 -4.9022 1 0 0 16 293 5127 0 ?291
 299 282 1063 0 0 1 30 294 5199 0 282 0 1063 0 +-.4572 3.5433 -4.9022 0 1 0 17 2
91 0 290 270 281 271 292 293 0 298 +17 298 0 36 266 300 271 270 299 0 0 -17 273
 0 676 292 754 271 266 764 0 291 -17 245 0 36 247 259 238 1058 788 0 1057 +17 24
7 0 36 233 245 242 1056 786 0 1055 +17 233 0 36 235 247 226 1054 802 0 1050 +17
 235 0 36 221 233 230 1049 800 0 1048 +17 221 0 36 223 235 214 1047 816 0 1046 +
17 223 0 36 209 221 218 1045 814 0 1041 +17 209 0 36 211 223 202 1040 830 0 1039
 +17 211 0 36 197 209 206 1038 828 0 1037 +17 197 0 36 199 211 190 1036 844 0 10
32 +17 199 0 36 185 197 194 1031 842 0 1030 +17 185 0 36 187 199 178 1029 858 0
 1028 +17 187 0 36 173 185 182 1027 856 0 1023 +17 173 0 36 175 187 166 1022 872
 0 1021 +17 175 0 36 161 173 170 1020 870 0 1019 +17 161 0 36 163 175 154 1018 8
86 0 1014 +17 163 0 36 149 161 158 1013 884 0 1012 +17 149 0 36 151 163 142 1011
 900 0 1010 +17 151 0 36 137 149 146 1009 898 0 1005 +17 137 0 36 139 151 130 10
04 914 0 1003 +17 139 0 36 125 137 134 1002 912 0 1001 +17 125 0 36 127 139 118
 1000 928 0 996 +17 127 0 36 113 125 122 995 926 0 994 +17 113 0 36 115 127 106
 993 942 0 992 +17 115 0 36 101 113 110 991 940 0 987 +17 101 0 36 103 115 94 98
6 956 0 985 +17 103 0 36 89 101 98 984 954 0 983 +17 89 0 36 91 103 82 979 969 0
 978 +82 6 673 0 144604251 31059260 0 0 0 82 6 665 0 144604251 31059260 0 0 0 82
 6 657 0 -1479908097 31059261 0 0 0 82 6 649 0 144604251 31059260 0 0 0 82 6 641
 0 -1479908097 31059261 0 0 0 82 6 633 0 144604251 31059260 0 0 0 82 6 625 0 -14
79908097 31059261 0 0 0 82 6 617 0 144604251 31059260 0 0 0 82 6 609 0 -14799080
97 31059261 0 0 0 82 6 601 0 144604251 31059260 0 0 0 82 6 593 0 -1479908097 310
59261 0 0 0 82 6 585 0 144604251 31059260 0 0 0 82 6 577 0 -1479908097 31059261
 0 0 0 82 6 569 0 144604251 31059260 0 0 0 82 6 561 0 -1479908097 31059261 0 0 0
 82 6 553 0 144604251 31059260 0 0 0 82 6 545 0 -1479908097 31059261 0 0 0 82 6
 537 0 144604251 31059260 0 0 0 82 6 529 0 -1479908097 31059261 0 0 0 82 6 521 0
 144604251 31059260 0 0 0 82 6 513 0 -1479908097 31059261 0 0 0 82 6 505 0 14460
4251 31059260 0 0 0 82 6 497 0 -1479908097 31059261 0 0 0 82 6 489 0 144604251 3
1059260 0 0 0 82 6 481 0 -1479908097 31059261 0 0 0 82 6 473 0 144604251 3105926
0 0 0 0 82 6 465 0 -1479908097 31059261 0 0 0 82 6 457 0 144604251 31059260 0 0
 0 82 6 449 0 -1479908097 31059261 0 0 0 82 6 441 0 144604251 31059260 0 0 0 82
 6 434 0 -1479908097 31059261 0 0 0 82 6 426 0 144604251 31059260 0 0 0 82 6 419
 0 -1479908097 31059261 0 0 0 82 1 411 506855574 82 6 410 0 -1479908097 31059261
 0 0 0 79 14 405 SWEntUnchanged82 1 395 1480327318 82 1 386 1486487702 17 63 0 3
6 363 37 53 49 331 0 328 +17 37 0 36 63 33 47 333 315 0 325 +19 17 100 0 1 0 9 5
 0 S0 74 4 CI16 index_map_offset0 0 1 dCCZ20 15 11 0 0 679 1064 1065 1066 674 10
67 1068 1069 13 683 2 0 0 0 0 0 0 0 0 0 81 2 1064 5218 1070 1 0 1065 0 0 0 1071
 81 2 1065 5224 1072 1 1064 1066 0 0 0 1073 81 2 1066 5225 1074 1 1065 1067 0 0
 1075 0 81 1 1067 5269 1076 1 1066 1068 0 0 1077 81 2 1068 5270 1078 1 1067 1069
 0 0 0 0 81 2 1069 5315 1079 1 1068 13 0 0 1080 0 81 2 13 5359 1081 1 1069 2 0 0
 0 1082 80 2 1081 1083 1084 9000 0 0 0 0 3 5 0 0 0 FFTFFFFFFFFFFFFF9 1 82 1 1082
 1 79 24 1084 BODY_IN_LIGHTWEIGHT_PERM80 2 1079 1085 1086 8004 0 0 0 0 3 5 0 0 0
 FFTFFFFFFFFFFFFF2 3 83 1 1080 1 79 16 1086 SDL/TYSA_DENSITY80 2 1078 1087 1088
 9000 0 0 0 0 3 5 0 0 0 FFTFFFFFFFFFFFFF9 1 79 16 1088 BODY_RECIPE_200180 1 1076
 1089 1090 9000 1 1 1 1 1 1 1 1 0 FFTFFFFFFFFFFFFF1 82 1 1077 335340 79 10 1090
 BODY_MATCH80 2 1074 1091 1092 9000 0 0 0 0 3 5 0 0 0 FFTFTTTFFTFFFFFF3 3 84 255
 13 1075 Boss-Extrude379 21 1092 SWIMPLICITBODYNAME_ID80 2 1072 1093 1094 9000 0
 0 0 0 3 5 0 0 0 FFTFFFFFFFFFFFFF9 1 82 1 1073 71 79 30 1094 LAST_BODY_MODIFYING
_FEATURE_ID80 2 1070 1095 1096 9000 0 0 0 0 3 5 0 0 0 FFTFFFFFFFFFFFFF9 1 82 1 1
071 164 79 19 1096 ENT_TIME_STAMP_200180 2 12 1097 1098 9000 0 0 0 0 3 5 0 0 0 F
FTFFFFFFFFFFFFF9 1 82 1 14 121 79 12 1098 ATOM_ID_20011 0 
