<?xml version="1.0" encoding="UTF-8" standalone="no"?>
<!DOCTYPE svg PUBLIC "-//W3C//DTD SVG 1.1//EN" "http://www.w3.org/Graphics/SVG/1.1/DTD/svg11.dtd">
<svg xmlns="http://www.w3.org/2000/svg" version="1.1" viewBox="0.00 0.00 256.00 256.00">
<path fill="#000000" d="
  M 180.66 113.78
  Q 201.82 92.45 223.27 71.13
  Q 228.16 66.27 231.18 65.10
  C 240.03 61.67 249.81 67.14 251.67 76.32
  C 253.17 83.67 249.62 87.99 244.18 93.44
  Q 212.26 125.39 180.31 157.31
  Q 180.00 157.61 180.00 158.04
  L 180.00 248.00
  A 4.00 4.00 0.0 0 1 176.00 252.00
  L 8.22 252.00
  A 4.22 4.22 0.0 0 1 4.00 247.78
  Q 4.00 137.74 4.00 27.08
  C 4.00 25.19 4.31 23.41 4.71 21.64
  A 1.71 1.70 6.0 0 1 6.35 20.32
  L 31.55 19.90
  A 0.47 0.47 0.0 0 0 32.01 19.43
  C 31.98 15.63 31.10 8.13 33.24 4.95
  A 1.04 1.03 13.4 0 1 34.01 4.48
  Q 42.03 3.62 50.05 4.08
  C 54.54 4.33 56.05 4.42 55.99 9.57
  Q 55.93 14.45 56.03 19.33
  Q 56.05 20.00 56.72 20.00
  L 79.38 20.00
  Q 80.00 20.00 80.00 19.37
  L 80.00 7.51
  A 3.13 3.12 -3.3 0 1 82.77 4.41
  Q 89.54 3.64 97.27 4.02
  C 101.92 4.25 104.04 4.02 103.98 9.24
  Q 103.93 14.28 104.03 19.33
  Q 104.05 20.00 104.72 20.00
  L 127.38 20.00
  Q 128.00 20.00 128.00 19.37
  L 128.00 7.52
  A 3.13 3.13 0.0 0 1 130.78 4.41
  Q 138.50 3.55 147.50 4.12
  Q 151.84 4.40 151.86 8.25
  Q 151.89 13.90 152.08 19.55
  Q 152.09 20.00 152.54 20.00
  L 175.87 20.00
  A 4.13 4.13 0.0 0 1 180.00 24.13
  L 180.00 113.51
  A 0.39 0.39 0.0 0 0 180.66 113.78
  Z
  M 48.00 12.60
  A 0.60 0.60 0.0 0 0 47.40 12.00
  L 40.60 12.00
  A 0.60 0.60 0.0 0 0 40.00 12.60
  L 40.00 35.40
  A 0.60 0.60 0.0 0 0 40.60 36.00
  L 47.40 36.00
  A 0.60 0.60 0.0 0 0 48.00 35.40
  L 48.00 12.60
  Z
  M 96.00 12.60
  A 0.60 0.60 0.0 0 0 95.40 12.00
  L 88.60 12.00
  A 0.60 0.60 0.0 0 0 88.00 12.60
  L 88.00 35.40
  A 0.60 0.60 0.0 0 0 88.60 36.00
  L 95.40 36.00
  A 0.60 0.60 0.0 0 0 96.00 35.40
  L 96.00 12.60
  Z
  M 144.00 12.60
  A 0.60 0.60 0.0 0 0 143.40 12.00
  L 136.60 12.00
  A 0.60 0.60 0.0 0 0 136.00 12.60
  L 136.00 35.40
  A 0.60 0.60 0.0 0 0 136.60 36.00
  L 143.40 36.00
  A 0.60 0.60 0.0 0 0 144.00 35.40
  L 144.00 12.60
  Z
  M 135.50 183.94
  C 132.02 183.15 131.58 180.61 132.63 177.51
  Q 136.14 167.07 139.62 156.52
  Q 139.80 156.00 139.25 156.00
  L 72.62 156.00
  Q 72.00 156.00 72.00 155.37
  L 72.00 148.50
  Q 72.00 148.00 72.50 148.00
  L 145.97 148.00
  A 0.93 0.89 -66.6 0 0 146.61 147.73
  L 153.59 140.84
  A 0.49 0.49 0.0 0 0 153.25 140.00
  L 140.75 140.00
  Q 140.00 140.00 140.00 139.25
  L 140.00 132.63
  Q 140.00 132.00 140.62 132.00
  L 161.75 132.00
  Q 162.38 132.00 162.81 131.56
  L 171.56 122.82
  Q 172.00 122.38 172.00 121.75
  L 172.00 28.75
  Q 172.00 28.00 171.25 28.00
  L 152.63 28.00
  Q 152.00 28.00 152.00 28.63
  L 152.00 40.00
  A 4.00 4.00 0.0 0 1 148.00 44.00
  L 132.13 44.00
  A 4.13 4.13 0.0 0 1 128.00 39.87
  L 128.00 28.62
  Q 128.00 28.00 127.37 28.00
  L 104.75 28.00
  Q 104.00 28.00 104.00 28.75
  L 104.00 39.88
  A 4.13 4.12 -0.0 0 1 99.87 44.00
  L 84.12 44.00
  A 4.13 4.12 90.0 0 1 80.00 39.87
  L 80.00 28.75
  Q 80.00 28.00 79.25 28.00
  L 56.63 28.00
  Q 56.00 28.00 56.00 28.62
  L 56.00 39.87
  A 4.13 4.13 0.0 0 1 51.87 44.00
  L 36.00 44.00
  A 4.00 4.00 0.0 0 1 32.00 40.00
  L 32.00 28.50
  A 0.50 0.50 0.0 0 0 31.50 28.00
  L 12.50 28.00
  A 0.50 0.50 0.0 0 0 12.00 28.50
  L 12.00 243.50
  A 0.50 0.50 0.0 0 0 12.50 244.00
  L 171.50 244.00
  A 0.50 0.50 0.0 0 0 172.00 243.50
  L 172.00 166.25
  A 0.30 0.30 0.0 0 0 171.48 166.05
  C 168.39 169.30 163.77 175.08 159.45 176.48
  Q 148.08 180.19 136.94 183.87
  A 2.76 2.75 42.1 0 1 135.50 183.94
  Z
  M 222.21 84.59
  L 231.41 93.79
  A 0.84 0.84 0.0 0 0 232.60 93.79
  L 241.68 84.71
  A 7.70 7.27 -45.0 0 0 241.99 74.13
  L 241.87 74.01
  A 7.70 7.27 -45.0 0 0 231.29 74.32
  L 222.21 83.40
  A 0.84 0.84 0.0 0 0 222.21 84.59
  Z
  M 216.5994 90.2052
  A 0.83 0.83 0.0 0 0 215.4256 90.2032
  L 210.2122 95.3984
  A 0.83 0.83 0.0 0 0 210.2102 96.5722
  L 219.4006 105.7948
  A 0.83 0.83 0.0 0 0 220.5744 105.7968
  L 225.7878 100.6016
  A 0.83 0.83 0.0 0 0 225.7898 99.4278
  L 216.5994 90.2052
  Z
  M 151.89 153.74
  A 0.47 0.47 0.0 0 0 152.08 154.51
  L 158.86 156.82
  A 0.47 0.47 0.0 0 1 159.16 157.11
  L 161.51 163.90
  A 0.47 0.47 0.0 0 0 162.29 164.08
  L 214.04 112.33
  A 0.47 0.47 0.0 0 0 214.04 111.67
  L 204.33 101.95
  A 0.47 0.47 0.0 0 0 203.67 101.95
  L 151.89 153.74
  Z
  M 152.84 163.23
  A 0.38 0.38 0.0 0 0 152.60 162.99
  L 146.86 161.19
  A 0.38 0.38 0.0 0 0 146.38 161.43
  L 142.53 173.00
  A 0.38 0.38 0.0 0 0 143.01 173.48
  L 154.60 169.60
  A 0.38 0.38 0.0 0 0 154.84 169.12
  L 152.84 163.23
  Z"
/>
<path fill="#000000" d="
  M 70.58 50.01
  Q 71.17 50.47 70.71 51.06
  L 60.25 64.47
  A 1.13 1.13 0.0 0 0 60.00 65.18
  L 60.00 96.00
  A 4.00 4.00 0.0 0 1 56.00 100.00
  L 24.00 100.00
  A 4.00 4.00 0.0 0 1 20.00 96.00
  L 20.00 64.25
  A 4.25 4.25 0.0 0 1 24.25 60.00
  L 53.20 60.00
  Q 53.61 60.00 53.86 59.68
  L 64.48 45.99
  A 0.61 0.61 0.0 0 1 65.33 45.88
  L 70.58 50.01
  Z
  M 35.20 73.58
  L 39.25 77.62
  Q 39.61 77.99 39.93 77.58
  L 47.01 68.51
  A 0.32 0.32 0.0 0 0 46.76 68.00
  L 28.75 68.00
  Q 28.00 68.00 28.00 68.75
  L 28.00 91.50
  A 0.50 0.50 0.0 0 0 28.50 92.00
  L 51.50 92.00
  Q 52.00 92.00 52.00 91.50
  L 52.00 75.95
  Q 52.00 75.04 51.44 75.76
  L 43.14 86.50
  A 3.93 3.93 0.0 0 1 37.25 86.88
  L 29.57 79.20
  A 0.61 0.61 0.0 0 1 29.57 78.34
  L 34.36 73.58
  A 0.59 0.59 0.0 0 1 35.20 73.58
  Z"
/>
<rect fill="#000000" x="84.00" y="68.00" width="48.00" height="8.00" rx="0.52"/>
<rect fill="#000000" x="140.00" y="68.00" width="24.00" height="8.00" rx="0.52"/>
<rect fill="#000000" x="72.00" y="84.00" width="92.00" height="8.00" rx="0.50"/>
<path fill="#000000" d="
  M 70.06 113.69
  Q 70.44 113.77 70.75 114.11
  Q 71.12 114.54 70.77 114.98
  L 60.25 128.47
  A 1.18 1.16 -26.6 0 0 60.00 129.19
  L 60.00 160.00
  A 4.00 4.00 0.0 0 1 56.00 164.00
  L 24.00 164.00
  A 4.00 4.00 0.0 0 1 20.00 160.00
  L 20.00 128.25
  A 4.25 4.25 0.0 0 1 24.25 124.00
  L 53.20 124.00
  Q 53.61 124.00 53.85 123.68
  L 64.40 110.09
  Q 64.77 109.60 65.29 109.94
  Q 67.87 111.63 70.06 113.69
  Z
  M 35.20 137.58
  L 39.25 141.62
  Q 39.61 141.99 39.93 141.58
  L 47.01 132.51
  A 0.32 0.32 0.0 0 0 46.76 132.00
  L 28.75 132.00
  Q 28.00 132.00 28.00 132.75
  L 28.00 155.50
  A 0.50 0.50 0.0 0 0 28.50 156.00
  L 51.50 156.00
  Q 52.00 156.00 52.00 155.50
  L 52.00 139.95
  Q 52.00 139.04 51.44 139.76
  L 43.14 150.50
  A 3.93 3.93 0.0 0 1 37.25 150.88
  L 29.57 143.20
  A 0.61 0.61 0.0 0 1 29.57 142.34
  L 34.36 137.58
  A 0.59 0.59 0.0 0 1 35.20 137.58
  Z"
/>
<rect fill="#000000" x="84.00" y="132.00" width="48.00" height="8.00" rx="0.52"/>
<path fill="#000000" d="
  M 70.06 177.69
  Q 70.45 177.77 70.76 178.13
  Q 71.12 178.54 70.78 178.97
  L 60.34 192.36
  Q 59.99 192.80 59.99 193.37
  Q 60.05 208.20 59.94 222.99
  C 59.90 227.29 58.24 228.00 54.21 228.00
  Q 39.03 228.00 24.03 228.00
  A 4.03 4.03 0.0 0 1 20.00 223.97
  L 20.00 192.25
  A 4.25 4.25 0.0 0 1 24.25 188.00
  L 53.20 188.00
  Q 53.61 188.00 53.85 187.68
  L 64.40 174.09
  Q 64.78 173.60 65.29 173.94
  Q 67.87 175.63 70.06 177.69
  Z
  M 35.20 201.58
  L 39.25 205.62
  Q 39.61 205.99 39.93 205.58
  L 47.01 196.51
  A 0.32 0.32 0.0 0 0 46.76 196.00
  L 28.75 196.00
  Q 28.00 196.00 28.00 196.75
  L 28.00 219.50
  A 0.50 0.50 0.0 0 0 28.50 220.00
  L 51.25 220.00
  Q 52.00 220.00 52.00 219.25
  L 52.00 203.95
  Q 52.00 203.04 51.44 203.76
  L 43.14 214.50
  A 3.93 3.93 0.0 0 1 37.25 214.88
  L 29.57 207.20
  A 0.61 0.61 0.0 0 1 29.57 206.34
  L 34.36 201.58
  A 0.59 0.59 0.0 0 1 35.20 201.58
  Z"
/>
<rect fill="#000000" x="84.00" y="196.00" width="48.00" height="8.00" rx="0.52"/>
<rect fill="#000000" x="140.00" y="196.00" width="24.00" height="8.00" rx="0.52"/>
<rect fill="#000000" x="72.00" y="212.00" width="92.00" height="8.00" rx="0.50"/>
</svg>
