<?xml version="1.0" encoding="UTF-8" standalone="no"?>
<!DOCTYPE svg PUBLIC "-//W3C//DTD SVG 1.1//EN" "http://www.w3.org/Graphics/SVG/1.1/DTD/svg11.dtd">
<svg width="100%" height="100%" viewBox="0 0 512 512" version="1.1" xmlns="http://www.w3.org/2000/svg" xmlns:xlink="http://www.w3.org/1999/xlink" xml:space="preserve" xmlns:serif="http://www.serif.com/" style="fill-rule:evenodd;clip-rule:evenodd;stroke-linejoin:round;stroke-miterlimit:2;">
    <path d="M175.25,506.23C159.61,506.22 145.86,496.55 141.27,481.58C140.263,478.3 139.76,472.817 139.76,465.13C139.747,323.51 139.743,181.883 139.75,40.25C139.75,25.68 149.96,11.51 164.17,7.34C167.73,6.293 174.21,5.767 183.61,5.76C249.737,5.74 315.867,5.74 382,5.76C385.38,5.76 386.87,5.99 389.37,8.49C419.477,38.597 449.427,68.55 479.22,98.35C480.206,99.336 480.76,100.671 480.76,102.06C480.76,224.627 480.73,347.44 480.67,470.5C480.66,487.99 469.11,502.81 451.75,505.64C447.23,506.38 440.47,506.23 435.33,506.23C348.637,506.263 261.943,506.263 175.25,506.23ZM151.63,479.81C155.96,491.53 165.94,495.74 177.7,495.74C265.707,495.753 353.713,495.757 441.72,495.75C460.47,495.75 470.26,486.77 470.25,467.74L470.25,108.53C470.25,107.657 469.813,107.22 468.94,107.22C453.56,107.24 438.45,107.25 423.61,107.25C414.65,107.243 408.323,106.73 404.63,105.71C391.22,101.99 379.53,89.1 379.52,74.06C379.5,54.907 379.493,35.863 379.5,16.93C379.5,16.557 379.193,16.25 378.82,16.25C312.08,16.257 245.44,16.253 178.9,16.24C173.58,16.24 169.54,16.697 166.78,17.61C155.09,21.47 150.25,31.04 150.25,42.86C150.25,184.7 150.253,326.537 150.26,468.37C150.26,473.523 150.717,477.337 151.63,479.81ZM462.55,96.43L390.32,24.19C390.256,24.127 390.17,24.091 390.08,24.091C389.894,24.091 389.74,24.244 389.74,24.43C389.767,38.463 389.763,52.48 389.73,66.48C389.7,80.03 392.85,91.09 406.8,95.46C409.7,96.367 414.053,96.807 419.86,96.78C434.053,96.727 448.237,96.723 462.41,96.77C462.519,96.768 462.607,96.679 462.607,96.57C462.607,96.518 462.587,96.467 462.55,96.43Z" style="fill-rule:nonzero;stroke:black;stroke-width:7.5px;"/>
    <path d="M66.205,120.248C67.445,116.718 69.056,116.44 70.646,120.58C72.286,124.84 72.61,129.75 75.05,133.98C85.11,151.42 95.223,168.937 105.39,186.53C105.953,187.506 106.25,188.61 106.25,189.73L106.25,445C106.25,449.7 98.73,451.26 96.49,446.8C95.997,445.813 95.75,444.2 95.75,441.96L95.75,194.94C95.75,194.793 95.677,194.72 95.53,194.72L42.49,194.76C41.997,194.76 41.75,195.007 41.75,195.5L41.75,291.5C41.75,298.31 31.27,299.01 31.26,290.38C31.247,256.68 31.243,223.233 31.25,190.04C31.256,188.794 31.584,187.572 32.2,186.49C42.187,169.17 52.237,151.767 62.35,134.28C65.02,129.66 64.641,124.699 66.205,120.248ZM91.36,184.24C91.574,184.24 91.749,184.064 91.749,183.85C91.749,183.783 91.732,183.718 91.7,183.66L69.12,144.55C69.051,144.427 68.921,144.351 68.78,144.351C68.639,144.351 68.509,144.427 68.44,144.55L45.84,183.67C45.804,183.73 45.785,183.8 45.785,183.87C45.785,184.082 45.958,184.257 46.17,184.26L91.36,184.24Z" style="fill-rule:nonzero;stroke:black;stroke-width:7.5px;"/>
    <path d="M315.44,159.96C315.44,157.234 313.226,155.02 310.5,155.02L309.98,155.02C307.254,155.02 305.04,157.234 305.04,159.96L305.04,172.2C305.04,174.926 307.254,177.14 309.98,177.14L310.5,177.14C313.226,177.14 315.44,174.926 315.44,172.2L315.44,159.96Z" style="stroke:black;stroke-width:4px;"/>
    <g transform="matrix(0.707107,-0.707107,0.707107,0.707107,236.2,196.68)">
        <path d="M5.18,-6.09C5.18,-8.85 2.94,-11.09 0.18,-11.09L-0.18,-11.09C-2.94,-11.09 -5.18,-8.85 -5.18,-6.09L-5.18,6.09C-5.18,8.85 -2.94,11.09 -0.18,11.09L0.18,11.09C2.94,11.09 5.18,8.85 5.18,6.09L5.18,-6.09Z" style="stroke:black;stroke-width:4px;"/>
    </g>
    <g transform="matrix(0.70834,-0.705872,0.705872,0.70834,384.27,196.68)">
        <path d="M11.09,-0.18C11.09,-2.934 8.854,-5.17 6.1,-5.17L-6.1,-5.17C-8.854,-5.17 -11.09,-2.934 -11.09,-0.18L-11.09,0.18C-11.09,2.934 -8.854,5.17 -6.1,5.17L6.1,5.17C8.854,5.17 11.09,2.934 11.09,0.18L11.09,-0.18Z" style="stroke:black;stroke-width:4px;"/>
    </g>
    <path d="M315.39,412.9C317.33,424.16 304.02,425.96 305.03,412.88C305.063,412.493 304.883,412.297 304.49,412.29C299.69,412.23 294.95,412.19 290.27,412.17C267.52,412.09 260.69,382.73 281.15,372.76C281.354,372.657 281.474,372.437 281.45,372.21C279.84,356.98 273,344.49 261.45,334.52C257.097,330.767 254.23,328.14 252.85,326.64C207.96,277.84 239.54,199.41 305.25,195.09C347.66,192.3 384.99,224.91 388.3,267C390.06,289.51 382.08,311.28 366.54,327.62C362.98,331.37 357.12,335.85 353.77,339.53C345.383,348.763 340.483,359.597 339.07,372.03C339.039,372.344 339.197,372.646 339.47,372.79C350.19,378.34 354.59,390.02 349.23,400.88C342.61,414.3 328.72,412.23 315.94,412.26C315.926,412.26 315.911,412.261 315.897,412.262C315.591,412.288 315.359,412.556 315.385,412.857C315.386,412.871 315.388,412.886 315.39,412.9ZM264.7,323.54C266.813,325.513 268.933,327.49 271.06,329.47C282.947,340.53 289.863,354.1 291.81,370.18C291.865,370.645 292.267,370.999 292.74,371L328.01,371C328.327,371.002 328.6,370.76 328.64,370.44C330.5,355.587 336.397,342.847 346.33,332.22C346.35,332.193 349.357,329.457 355.35,324.01C405.43,278.51 366.24,196.11 299.82,206.11C266.96,211.05 242.33,239.72 242.33,272.96C242.323,292.733 249.78,309.593 264.7,323.54ZM340.98,391.28C340.98,385.926 336.574,381.52 331.22,381.52L289.14,381.52C283.786,381.52 279.38,385.926 279.38,391.28L279.38,391.94C279.38,397.294 283.786,401.7 289.14,401.7L331.22,401.7C336.574,401.7 340.98,397.294 340.98,391.94L340.98,391.28Z" style="fill-rule:nonzero;stroke:black;stroke-width:7.5px;"/>
    <g transform="matrix(0.999998,-0.00174533,0.00174533,0.999998,205.6,270.63)">
        <path d="M11.08,-0.25C11.08,-2.932 8.902,-5.11 6.22,-5.11L-6.22,-5.11C-8.902,-5.11 -11.08,-2.932 -11.08,-0.25L-11.08,0.25C-11.08,2.932 -8.902,5.11 -6.22,5.11L6.22,5.11C8.902,5.11 11.08,2.932 11.08,0.25L11.08,-0.25Z" style="stroke:black;stroke-width:4px;"/>
    </g>
    <path d="M425.96,270.4C425.96,267.718 423.782,265.54 421.1,265.54L408.64,265.54C405.958,265.54 403.78,267.718 403.78,270.4L403.78,270.88C403.78,273.562 405.958,275.74 408.64,275.74L421.1,275.74C423.782,275.74 425.96,273.562 425.96,270.88L425.96,270.4Z" style="stroke:black;stroke-width:4px;"/>
    <path d="M41.71,337.09C41.71,334.33 39.47,332.09 36.71,332.09L36.29,332.09C33.53,332.09 31.29,334.33 31.29,337.09L31.29,354.71C31.29,357.47 33.53,359.71 36.29,359.71L36.71,359.71C39.47,359.71 41.71,357.47 41.71,354.71L41.71,337.09Z" style="stroke:black;stroke-width:7.5px;"/>
    <path d="M41.74,375.67C41.74,372.822 39.428,370.51 36.58,370.51L36.42,370.51C33.572,370.51 31.26,372.822 31.26,375.67L31.26,444.33C31.26,447.178 33.572,449.49 36.42,449.49L36.58,449.49C39.428,449.49 41.74,447.178 41.74,444.33L41.74,375.67Z" style="stroke:black;stroke-width:7.5px;"/>
    <path d="M100.55,459.98C103.699,459.98 106.29,462.571 106.29,465.72L106.29,474.95C106.29,492.126 92.138,506.26 74.94,506.26L62.56,506.26C45.362,506.26 31.21,492.126 31.21,474.95L31.21,465.72C31.21,462.571 33.801,459.98 36.95,459.98L100.55,459.98ZM95,470.34L42.6,470.44C42.134,470.44 41.75,470.824 41.75,471.29L41.76,475.3C41.782,486.586 51.179,495.857 62.58,495.84L75.106,495.82C86.511,495.8 95.88,486.494 95.86,475.204C95.86,475.202 95.86,475.201 95.86,475.2L95.85,471.19C95.85,470.724 95.466,470.34 95,470.34Z" style="fill-rule:nonzero;stroke:black;stroke-width:7.5px;"/>
</svg>
