<?xml version="1.0" encoding="UTF-8" standalone="no"?>
<!DOCTYPE svg PUBLIC "-//W3C//DTD SVG 1.1//EN" "http://www.w3.org/Graphics/SVG/1.1/DTD/svg11.dtd">
<svg xmlns="http://www.w3.org/2000/svg" version="1.1" viewBox="0.00 0.00 512.00 512.00">
<path fill="#000000" d="
  M 45.07 0.00
  L 232.06 0.00
  Q 244.01 2.06 247.74 11.81
  Q 249.26 15.77 249.26 25.37
  Q 249.23 76.55 249.26 127.74
  Q 249.26 128.25 249.77 128.25
  L 262.23 128.25
  Q 262.75 128.25 262.75 127.74
  Q 262.75 75.78 262.76 23.85
  C 262.76 11.26 266.26 2.19 280.05 0.00
  L 409.06 0.00
  C 418.43 3.10 416.72 15.00 408.00 15.00
  Q 344.54 15.00 281.72 15.00
  A 3.98 3.97 90.0 0 0 277.75 18.98
  L 277.75 127.50
  Q 277.75 128.25 278.50 128.25
  L 289.76 128.25
  A 0.70 0.70 0.0 0 0 290.46 127.56
  C 290.66 115.03 287.50 99.61 302.57 93.83
  Q 306.08 92.49 312.76 92.50
  Q 339.03 92.54 365.39 92.48
  Q 365.94 92.48 365.96 91.92
  C 366.05 86.98 364.79 74.73 367.13 70.80
  C 369.69 66.49 373.56 67.62 377.15 66.54
  C 389.90 62.69 389.52 44.78 376.45 41.19
  C 368.52 39.01 360.88 45.43 360.20 53.45
  C 359.25 64.77 344.99 63.24 345.34 53.32
  C 346.07 32.46 367.96 19.12 386.89 29.39
  C 409.49 41.65 404.85 72.56 381.40 80.98
  Q 381.00 81.12 381.00 81.54
  L 381.00 92.00
  A 0.50 0.50 0.0 0 0 381.50 92.50
  L 468.29 92.50
  A 0.72 0.72 0.0 0 0 469.01 91.78
  L 469.00 18.51
  A 3.51 3.51 0.0 0 0 465.49 15.00
  Q 455.39 15.00 444.70 14.98
  C 433.95 14.96 432.10 2.42 442.07 0.00
  L 467.03 0.00
  C 479.47 2.14 484.03 10.19 484.01 21.79
  Q 483.98 56.85 484.01 91.76
  A 0.73 0.72 90.0 0 0 484.73 92.49
  C 489.05 92.52 494.09 92.08 497.98 93.20
  Q 509.93 96.62 512.00 109.81
  L 512.00 230.80
  Q 510.02 242.74 499.72 246.67
  C 495.26 248.37 489.44 248.06 484.37 247.99
  Q 483.80 247.99 483.79 248.55
  Q 483.66 256.41 483.78 264.25
  C 483.92 272.80 476.52 279.75 468.08 277.39
  Q 465.37 276.64 461.09 273.06
  Q 446.38 260.76 431.76 248.29
  Q 431.42 248.00 430.97 248.00
  L 367.08 248.00
  A 0.49 0.49 0.0 0 0 366.59 248.51
  C 367.36 264.92 368.23 283.47 345.76 283.49
  Q 334.98 283.51 324.21 283.50
  C 311.97 283.50 312.95 268.47 324.02 268.48
  Q 336.46 268.48 347.94 268.51
  A 3.80 3.79 -89.8 0 0 351.74 264.72
  Q 351.76 206.23 351.75 148.25
  C 351.74 144.11 349.31 143.26 345.54 143.26
  Q 255.27 143.25 165.00 143.43
  Q 160.26 143.44 160.26 148.00
  Q 160.23 205.96 160.27 264.75
  A 3.74 3.74 0.0 0 0 164.04 268.49
  C 172.78 268.41 183.72 267.02 187.48 277.14
  C 189.21 281.79 188.49 289.35 188.50 294.96
  A 0.35 0.35 0.0 0 0 189.07 295.22
  Q 201.69 284.50 214.42 273.79
  C 218.79 270.11 221.56 268.54 227.00 268.53
  Q 255.37 268.46 283.73 268.52
  Q 288.70 268.53 290.54 269.25
  C 296.05 271.40 296.96 278.99 291.83 282.33
  Q 290.05 283.49 286.29 283.49
  Q 256.45 283.51 227.08 283.50
  A 2.52 2.50 24.8 0 0 225.46 284.09
  Q 211.03 296.30 196.71 308.32
  Q 192.71 311.67 190.79 312.50
  C 185.15 314.95 178.10 312.38 175.17 307.09
  C 172.23 301.79 173.43 290.23 173.53 284.13
  Q 173.54 283.54 172.95 283.52
  C 168.10 283.43 162.55 284.04 158.31 282.61
  C 142.90 277.41 144.90 261.04 145.38 248.40
  A 0.39 0.38 1.4 0 0 144.99 248.00
  L 81.24 248.00
  A 1.37 1.34 -64.6 0 0 80.37 248.32
  Q 64.51 261.61 48.58 274.80
  C 42.30 280.00 32.67 277.89 29.48 270.72
  C 27.17 265.55 28.30 255.12 28.23 248.55
  Q 28.22 247.98 27.65 247.99
  C 22.46 248.08 16.67 248.36 12.13 246.60
  Q 1.83 242.61 0.00 230.69
  L 0.00 109.45
  Q 1.93 98.13 11.58 94.01
  C 16.19 92.04 22.07 92.43 27.39 92.51
  Q 27.98 92.52 27.98 91.93
  Q 28.04 56.82 27.98 21.78
  C 27.96 10.15 32.57 2.04 45.07 0.00
  Z
  M 204.19 107.81
  Q 203.72 107.50 203.15 107.50
  Q 149.84 107.51 96.27 107.49
  Q 91.28 107.49 89.10 106.19
  C 84.82 103.64 84.93 95.94 89.60 93.48
  Q 91.45 92.51 95.24 92.51
  Q 112.76 92.53 130.40 92.48
  Q 130.96 92.48 130.97 91.92
  Q 131.06 84.30 131.03 76.68
  C 131.00 69.74 133.29 67.98 139.94 67.03
  C 150.92 65.45 155.92 51.91 147.43 44.31
  C 139.49 37.19 126.88 41.79 125.50 52.48
  C 124.89 57.14 123.89 60.68 118.91 61.21
  C 112.71 61.88 109.62 56.82 110.54 51.05
  C 113.09 35.13 127.14 22.80 143.50 26.22
  C 172.20 32.23 175.06 71.81 146.62 80.88
  Q 146.00 81.08 146.00 81.73
  L 146.01 91.90
  A 0.60 0.59 -90.0 0 0 146.60 92.50
  Q 172.90 92.51 199.20 92.50
  Q 205.96 92.50 209.48 93.85
  C 224.51 99.63 221.36 115.25 221.53 127.74
  Q 221.54 128.23 222.03 128.23
  L 233.73 128.28
  A 0.51 0.51 0.0 0 0 234.25 127.77
  L 234.25 19.00
  A 4.00 4.00 0.0 0 0 230.25 15.00
  L 46.75 15.00
  A 3.75 3.74 -90.0 0 0 43.01 18.75
  L 42.99 92.24
  A 0.27 0.26 89.0 0 0 43.26 92.51
  C 47.58 92.48 57.78 91.52 61.41 93.21
  C 67.15 95.89 67.26 104.22 61.43 106.73
  Q 59.62 107.51 55.46 107.50
  Q 36.86 107.49 18.77 107.50
  A 3.78 3.78 0.0 0 0 15.00 111.28
  L 15.00 229.04
  A 3.95 3.94 -89.8 0 0 18.91 232.99
  C 24.12 233.03 30.90 232.22 35.36 234.21
  C 45.47 238.71 43.11 250.56 43.28 259.23
  Q 43.29 259.90 43.81 259.47
  Q 57.90 247.61 72.13 235.91
  Q 75.68 233.00 79.00 233.00
  Q 111.97 233.01 144.82 233.00
  A 0.50 0.50 0.0 0 0 145.32 232.50
  Q 145.10 189.99 145.41 149.05
  C 145.51 135.85 153.02 128.54 166.15 128.37
  Q 185.85 128.11 205.80 128.30
  A 0.68 0.68 0.0 0 0 206.49 127.62
  Q 206.52 119.61 206.48 111.51
  C 206.47 109.60 205.65 108.76 204.19 107.81
  Z
  M 439.47 235.27
  C 449.03 243.32 459.16 251.17 468.31 259.64
  A 0.38 0.38 0.0 0 0 468.95 259.33
  C 468.55 252.96 467.73 243.71 471.25 238.62
  C 476.37 231.23 485.45 233.05 493.05 232.99
  A 3.98 3.98 0.0 0 0 497.00 229.01
  L 497.00 111.25
  A 3.75 3.75 0.0 0 0 493.25 107.50
  L 309.25 107.50
  A 3.75 3.75 0.0 0 0 305.50 111.25
  L 305.50 127.73
  Q 305.50 128.22 305.99 128.23
  Q 323.14 128.30 340.29 128.23
  Q 349.89 128.18 354.05 129.61
  Q 366.80 133.99 366.79 150.02
  Q 366.75 190.60 366.73 232.02
  Q 366.73 233.00 367.71 233.00
  Q 399.36 232.99 431.62 233.01
  C 434.19 233.01 437.76 233.83 439.47 235.27
  Z"
/>
<path fill="#000000" d="
  M 97.32 118.68
  C 131.18 114.66 141.56 162.67 108.81 173.47
  Q 108.31 173.63 108.30 174.16
  Q 108.14 181.52 108.28 188.75
  C 108.46 198.32 93.34 199.87 93.27 186.59
  Q 93.22 176.93 93.27 167.25
  C 93.30 161.18 98.07 160.26 102.75 159.45
  C 110.34 158.15 115.75 150.59 113.38 142.90
  C 108.93 128.52 88.95 131.19 87.51 146.17
  C 86.42 157.47 72.09 156.21 72.78 144.74
  C 73.58 131.25 83.78 120.29 97.32 118.68
  Z"
/>
<path fill="#000000" d="
  M 383.17 144.75
  C 384.01 129.45 397.56 117.45 412.47 118.42
  C 444.13 120.48 449.23 163.33 419.28 173.50
  Q 418.78 173.67 418.77 174.21
  C 418.73 178.89 419.73 187.82 417.95 191.92
  C 415.35 197.91 406.58 197.56 404.29 191.47
  Q 403.74 190.03 403.75 186.96
  Q 403.75 178.32 403.75 169.68
  C 403.75 162.15 405.92 160.55 412.76 159.55
  C 422.28 158.15 427.71 147.83 422.03 139.43
  C 414.95 128.96 400.06 132.78 398.22 145.14
  C 397.91 147.18 397.92 148.90 396.69 150.62
  C 391.70 157.62 382.70 153.19 383.17 144.75
  Z"
/>
<path fill="#000000" d="
  M 242.42 182.28
  C 241.40 194.12 225.97 191.88 227.66 180.08
  Q 230.34 161.39 247.06 155.78
  C 255.71 152.88 265.41 154.19 272.61 159.61
  C 291.84 174.07 286.74 202.48 264.04 209.99
  Q 263.55 210.15 263.54 210.67
  C 263.45 215.55 264.45 224.11 262.90 228.32
  C 260.62 234.55 251.68 234.60 249.13 228.49
  C 247.31 224.13 248.49 211.69 248.50 206.48
  C 248.53 192.53 257.59 199.01 264.55 192.81
  C 278.63 180.27 259.61 160.69 246.73 172.96
  Q 242.91 176.60 242.42 182.28
  Z"
/>
<circle fill="#000000" cx="100.78" cy="214.52" r="7.40"/>
<circle fill="#000000" cx="411.20" cy="214.52" r="7.40"/>
<circle fill="#000000" cx="256.00" cy="250.34" r="7.41"/>
<path fill="#000000" d="
  M 376.45 512.00
  L 374.69 512.00
  Q 370.39 511.38 367.12 508.61
  Q 351.70 495.59 336.14 482.57
  Q 335.75 482.24 335.24 482.25
  Q 252.08 482.26 168.97 482.24
  Q 165.16 482.24 163.38 481.18
  C 158.52 478.30 158.47 471.35 163.18 468.45
  Q 165.12 467.26 169.20 467.26
  Q 252.60 467.24 336.00 467.27
  C 340.33 467.27 342.88 468.70 346.40 471.63
  Q 359.54 482.57 372.51 493.67
  A 0.40 0.40 0.0 0 0 373.17 493.37
  C 373.33 484.59 370.80 472.16 381.71 468.20
  C 387.91 465.95 400.27 467.26 407.25 467.25
  A 4.02 4.01 -90.0 0 0 411.25 463.24
  Q 411.26 404.62 411.25 347.00
  Q 411.24 342.33 406.25 342.33
  Q 255.26 342.50 104.80 342.53
  A 4.05 4.05 0.0 0 0 100.75 346.58
  L 100.75 463.27
  A 3.98 3.98 0.0 0 0 104.74 467.25
  Q 117.13 467.23 130.07 467.27
  C 142.71 467.30 142.44 482.21 131.09 482.23
  Q 119.93 482.25 108.78 482.26
  C 98.87 482.27 90.83 479.94 87.24 470.35
  Q 85.75 466.37 85.75 456.35
  Q 85.75 406.16 85.74 355.97
  C 85.74 343.29 85.91 333.32 98.02 328.89
  Q 101.84 327.49 109.65 327.49
  Q 255.42 327.51 401.18 327.49
  Q 410.18 327.49 414.14 328.96
  C 425.19 333.05 426.25 342.25 426.25 353.69
  Q 426.25 407.84 426.26 462.00
  Q 426.26 476.68 413.66 481.07
  C 406.91 483.43 396.14 482.21 388.58 482.27
  A 0.43 0.42 89.3 0 0 388.16 482.71
  C 388.42 493.75 391.47 509.36 376.45 512.00
  Z"
/>
<rect fill="#000000" x="361.28" y="362.86" width="14.92" height="59.54" rx="7.27"/>
<rect fill="#000000" x="135.85" y="377.29" width="73.56" height="14.94" rx="7.31"/>
<rect fill="#000000" x="229.54" y="377.28" width="96.64" height="14.96" rx="7.35"/>
<rect fill="#000000" x="135.82" y="417.27" width="145.64" height="14.98" rx="7.39"/>
<circle fill="#000000" cx="368.71" cy="440.57" r="7.40"/>
</svg>
